Perun-Regular.ufo
<glyph name="numbersign" format="2">
  <advance width="745"/>
  <unicode hex="0023"/>
  <outline>
    <contour>
      <point x="120" y="0" type="line"/>
      <point x="194" y="0" type="line"/>
      <point x="415" y="722" type="line"/>
      <point x="340" y="722" type="line"/>
    </contour>
    <contour>
      <point x="325" y="0" type="line"/>
      <point x="399" y="0" type="line"/>
      <point x="620" y="722" type="line"/>
      <point x="545" y="722" type="line"/>
    </contour>
    <contour>
      <point x="135" y="513" type="line"/>
      <point x="114" y="444" type="line"/>
      <point x="675" y="444" type="line"/>
      <point x="696" y="513" type="line"/>
    </contour>
    <contour>
      <point x="71" y="308" type="line"/>
      <point x="50" y="239" type="line"/>
      <point x="611" y="239" type="line"/>
      <point x="632" y="308" type="line"/>
    </contour>
  </outline>
  <guideline angle="253.054" x="545" y="722"/>
  <guideline angle="73.0535" x="399" y="0"/>
  <guideline angle="0" x="0" y="308"/>
  <guideline angle="0" x="0" y="239"/>
  <guideline angle="253.072" x="135" y="513"/>
  <guideline angle="73.0725" x="675" y="444"/>
  <guideline angle="0" x="0" y="513"/>
  <guideline angle="0" x="0" y="493"/>
</glyph>
<glyph name="ampersand" format="2">
  <advance width="711"/>
  <unicode hex="0026"/>
  <outline>
    <contour>
      <point x="574.75" y="0" type="line"/>
      <point x="700.455" y="0" type="line"/>
      <point x="297.671" y="434.161" type="line" smooth="yes"/>
      <point x="238.395" y="498.055"/>
      <point x="217.245" y="535.123"/>
      <point x="217.245" y="575.114" type="curve" smooth="yes"/>
      <point x="217.245" y="626.628"/>
      <point x="255.502" y="661"/>
      <point x="312.839" y="661" type="curve" smooth="yes"/>
      <point x="366.764" y="661"/>
      <point x="402.879" y="629.355"/>
      <point x="402.879" y="582.105" type="curve" smooth="yes"/>
      <point x="402.879" y="542.372"/>
      <point x="377.77" y="509.753"/>
      <point x="318.921" y="473.034" type="curve" smooth="yes"/>
      <point x="252.365" y="431.507" type="line"/>
      <point x="291.755" y="378.151" type="line"/>
      <point x="359.171" y="419.354" type="line" smooth="yes"/>
      <point x="442.704" y="470.406"/>
      <point x="484.879" y="528.557"/>
      <point x="484.879" y="592.68" type="curve" smooth="yes"/>
      <point x="484.879" y="676.59"/>
      <point x="412.804" y="736"/>
      <point x="311.006" y="736" type="curve" smooth="yes"/>
      <point x="201.368" y="736"/>
      <point x="125.175" y="667.371"/>
      <point x="125.175" y="568.616" type="curve" smooth="yes"/>
      <point x="125.175" y="506.902"/>
      <point x="154.547" y="451.579"/>
      <point x="230.844" y="369.585" type="curve" smooth="yes"/>
    </contour>
    <contour>
      <point x="70" y="199.208" type="curve" smooth="yes"/>
      <point x="70" y="73.7132"/>
      <point x="162.942" y="-13"/>
      <point x="297.452" y="-13" type="curve" smooth="yes"/>
      <point x="386.312" y="-13"/>
      <point x="489.749" y="25.1359"/>
      <point x="549.536" y="79.9398" type="curve"/>
      <point x="498.056" y="142.605" type="line"/>
      <point x="457.889" y="101.146"/>
      <point x="386.654" y="73"/>
      <point x="321.891" y="73" type="curve" smooth="yes"/>
      <point x="233.162" y="73"/>
      <point x="169" y="126.243"/>
      <point x="169" y="199.871" type="curve" smooth="yes"/>
      <point x="169" y="270.793"/>
      <point x="198.214" y="323.656"/>
      <point x="258.008" y="360.934" type="curve" smooth="yes"/>
      <point x="279.435" y="374.292" type="line"/>
      <point x="240.409" y="427.379" type="line"/>
      <point x="183.66" y="393.073" type="line" smooth="yes"/>
      <point x="109.391" y="348.177"/>
      <point x="70" y="280.99"/>
    </contour>
    <contour>
      <point x="563.733" y="99.5459" type="line"/>
      <point x="615.16" y="157.787"/>
      <point x="651" y="290.216"/>
      <point x="651" y="422" type="curve"/>
      <point x="547.31" y="421.754" type="line"/>
      <point x="545.949" y="420.246" type="line"/>
      <point x="553.244" y="381.717"/>
      <point x="557" y="349.559"/>
      <point x="557" y="325.632" type="curve" smooth="yes"/>
      <point x="557" y="267.393"/>
      <point x="534.793" y="194.989"/>
      <point x="504.146" y="153.304" type="curve"/>
    </contour>
  </outline>
  <guideline angle="211.264" x="240" y="427"/>
  <guideline angle="211.264" x="240" y="350"/>
</glyph>
<glyph name="parenleft" format="2">
  <advance width="277"/>
  <unicode hex="0028"/>
  <outline>
    <contour>
      <point x="163" y="-133" type="curve"/>
      <point x="227" y="-133" type="line"/>
      <point x="172" y="23"/>
      <point x="145" y="170"/>
      <point x="145" y="304" type="curve" smooth="yes"/>
      <point x="145" y="439"/>
      <point x="172" y="583"/>
      <point x="227" y="736" type="curve"/>
      <point x="163" y="736" type="line"/>
      <point x="88" y="599"/>
      <point x="50" y="454"/>
      <point x="50" y="301" type="curve" smooth="yes"/>
      <point x="50" y="148"/>
      <point x="88" y="4"/>
    </contour>
  </outline>
</glyph>
<glyph name="five" format="2">
  <advance width="558"/>
  <unicode hex="0035"/>
  <outline>
    <contour>
      <point x="53" y="176" type="line"/>
      <point x="53" y="47"/>
      <point x="155" y="-13"/>
      <point x="290" y="-13" type="curve" smooth="yes"/>
      <point x="403" y="-13"/>
      <point x="506" y="107"/>
      <point x="506" y="257" type="curve" smooth="yes"/>
      <point x="506" y="406"/>
      <point x="436" y="480"/>
      <point x="323" y="480" type="curve" smooth="yes"/>
      <point x="242.661" y="480"/>
      <point x="200.188" y="442.135"/>
      <point x="168.539" y="404.507" type="curve"/>
      <point x="175" y="400" type="line"/>
      <point x="175" y="651" type="line"/>
      <point x="163" y="639" type="line"/>
      <point x="460" y="639" type="line"/>
      <point x="460" y="722" type="line"/>
      <point x="77" y="722" type="line"/>
      <point x="77" y="302" type="line"/>
      <point x="154" y="302" type="line"/>
      <point x="185" y="371"/>
      <point x="229" y="406"/>
      <point x="289" y="406" type="curve" smooth="yes"/>
      <point x="366" y="406"/>
      <point x="405" y="349"/>
      <point x="405" y="235" type="curve" smooth="yes"/>
      <point x="405" y="147"/>
      <point x="359" y="67"/>
      <point x="279" y="67" type="curve" smooth="yes"/>
      <point x="207" y="67"/>
      <point x="158" y="104"/>
      <point x="158" y="176" type="curve"/>
    </contour>
  </outline>
</glyph>
<glyph name="nine" format="2">
  <advance width="558"/>
  <unicode hex="0039"/>
  <outline>
    <contour>
      <point x="276" y="355" type="curve" smooth="yes"/>
      <point x="182" y="355"/>
      <point x="150" y="412"/>
      <point x="150" y="508" type="curve" smooth="yes"/>
      <point x="150" y="604"/>
      <point x="182" y="660"/>
      <point x="276" y="660" type="curve" smooth="yes"/>
      <point x="370" y="660"/>
      <point x="403" y="604"/>
      <point x="403" y="508" type="curve" smooth="yes"/>
      <point x="403" y="412"/>
      <point x="369" y="355"/>
    </contour>
    <contour>
      <point x="163" y="172" type="curve"/>
      <point x="67" y="172" type="line"/>
      <point x="67" y="57"/>
      <point x="134" y="-14"/>
      <point x="261" y="-14" type="curve" smooth="yes"/>
      <point x="472" y="-14"/>
      <point x="512" y="182"/>
      <point x="512" y="380" type="curve" smooth="yes"/>
      <point x="512" y="581"/>
      <point x="502" y="737"/>
      <point x="272" y="737" type="curve" smooth="yes"/>
      <point x="116" y="737"/>
      <point x="48" y="634"/>
      <point x="48" y="503" type="curve" smooth="yes"/>
      <point x="48" y="378"/>
      <point x="110" y="278"/>
      <point x="247" y="278" type="curve" smooth="yes"/>
      <point x="327" y="278"/>
      <point x="385" y="312"/>
      <point x="416" y="370" type="curve"/>
      <point x="416" y="276"/>
      <point x="409" y="63"/>
      <point x="272" y="63" type="curve" smooth="yes"/>
      <point x="199" y="63"/>
      <point x="163" y="95"/>
    </contour>
  </outline>
</glyph>
<glyph name="semicolon" format="2">
  <advance width="275"/>
  <unicode hex="003B"/>
  <outline>
    <contour>
      <point x="33.8929" y="-127" type="line"/>
      <point x="103.893" y="-127" type="line"/>
      <point x="213.893" y="123" type="line"/>
      <point x="93.8929" y="123" type="line"/>
    </contour>
    <contour>
      <point x="98" y="377" type="line"/>
      <point x="206" y="377" type="line"/>
      <point x="206" y="500" type="line"/>
      <point x="98" y="500" type="line"/>
    </contour>
  </outline>
  <guideline angle="90" x="98" y="0"/>
  <guideline angle="90" x="206" y="0"/>
</glyph>
<glyph name="equal" format="2">
  <advance width="700"/>
  <unicode hex="003D"/>
  <outline>
    <contour>
      <point x="50" y="178" type="line"/>
      <point x="650" y="178" type="line"/>
      <point x="650" y="240" type="line"/>
      <point x="50" y="240" type="line"/>
    </contour>
    <contour>
      <point x="50" y="360" type="line"/>
      <point x="650" y="360" type="line"/>
      <point x="650" y="422" type="line"/>
      <point x="50" y="422" type="line"/>
    </contour>
  </outline>
</glyph>
<glyph name="A" format="2">
  <advance width="760"/>
  <unicode hex="0041"/>
  <anchor x="380" y="797" name="top"/>
  <anchor x="380" y="-75" name="bottom"/>
  <anchor x="380" y="666" name="t.ring"/>
  <anchor x="182" y="722" name="tonos"/>
  <anchor x="740" y="0" name="ogonekUC"/>
  <outline>
    <contour>
      <point x="20" y="0" type="line"/>
      <point x="123" y="0" type="line"/>
      <point x="381.723" y="626.865" type="line"/>
      <point x="370.181" y="626.825" type="line"/>
      <point x="634" y="0" type="line"/>
      <point x="740" y="0" type="line"/>
      <point x="433" y="722" type="line"/>
      <point x="323" y="722" type="line"/>
    </contour>
    <contour>
      <point x="539" y="278" type="line"/>
      <point x="216" y="278" type="line"/>
      <point x="177" y="193" type="line"/>
      <point x="581" y="193" type="line"/>
    </contour>
  </outline>
  <guideline angle="292.813" x="377" y="611"/>
  <guideline angle="67.5869" x="123" y="0"/>
  <guideline angle="0" x="0" y="231"/>
  <guideline angle="0" x="0" y="255"/>
  <guideline angle="292.825" x="376" y="613"/>
  <guideline angle="67.5729" x="123" y="0"/>
  <guideline angle="90" x="380" y="0"/>
</glyph>
<glyph name="C" format="2">
  <advance width="660"/>
  <unicode hex="0043"/>
  <anchor x="335" y="797" name="top"/>
  <anchor x="357" y="-75" name="bottom"/>
  <anchor x="357" y="0" name="b.cedilla"/>
  <outline>
    <contour>
      <point x="30" y="361" type="curve" smooth="yes"/>
      <point x="30" y="137.2"/>
      <point x="161.2" y="-12"/>
      <point x="358" y="-12" type="curve" smooth="yes"/>
      <point x="499.719" y="-12"/>
      <point x="600.519" y="70.8"/>
      <point x="610" y="195" type="curve"/>
      <point x="509" y="195" type="line"/>
      <point x="499.219" y="123.6"/>
      <point x="436.419" y="76"/>
      <point x="352" y="76" type="curve" smooth="yes"/>
      <point x="220.6" y="76"/>
      <point x="133" y="190"/>
      <point x="133" y="361" type="curve" smooth="yes"/>
      <point x="133" y="532"/>
      <point x="220.6" y="646"/>
      <point x="352" y="646" type="curve" smooth="yes"/>
      <point x="434.646" y="646"/>
      <point x="495.846" y="598.4"/>
      <point x="505" y="527" type="curve"/>
      <point x="606" y="527" type="line"/>
      <point x="596.446" y="651.2"/>
      <point x="496.046" y="734"/>
      <point x="355" y="734" type="curve" smooth="yes"/>
      <point x="160" y="734"/>
      <point x="30" y="584.8"/>
    </contour>
  </outline>
</glyph>
<glyph name="D" format="2">
  <advance width="700"/>
  <unicode hex="0044"/>
  <anchor x="255" y="797" name="top"/>
  <outline>
    <component base="I" xOffset="-10"/>
    <contour>
      <point x="112.5" y="0" type="line"/>
      <point x="334" y="0" type="line" smooth="yes"/>
      <point x="535.6" y="0"/>
      <point x="650" y="132.501"/>
      <point x="650" y="366" type="curve" smooth="yes"/>
      <point x="650" y="593.119"/>
      <point x="535.6" y="722"/>
      <point x="334" y="722" type="curve" smooth="yes"/>
      <point x="112.5" y="722" type="line"/>
      <point x="112.5" y="635" type="line"/>
      <point x="336" y="635" type="line" smooth="yes"/>
      <point x="465.407" y="635"/>
      <point x="547" y="529.819"/>
      <point x="547" y="363" type="curve" smooth="yes"/>
      <point x="547" y="193.554"/>
      <point x="465.54" y="87"/>
      <point x="336" y="87" type="curve" smooth="yes"/>
      <point x="112.5" y="87" type="line"/>
    </contour>
  </outline>
</glyph>
<glyph name="G" format="2">
  <advance width="735"/>
  <unicode hex="0047"/>
  <anchor x="358" y="797" name="top"/>
  <anchor x="358" y="-57" name="bottom"/>
  <outline>
    <contour>
      <point x="30" y="361" type="curve" smooth="yes"/>
      <point x="30" y="137"/>
      <point x="161" y="-12"/>
      <point x="358" y="-12" type="curve" smooth="yes"/>
      <point x="459" y="-12"/>
      <point x="573" y="8"/>
      <point x="643" y="38" type="curve"/>
      <point x="643" y="386" type="line"/>
      <point x="378" y="386" type="line"/>
      <point x="378" y="299" type="line"/>
      <point x="542" y="299" type="line"/>
      <point x="542" y="100" type="line"/>
      <point x="491" y="86"/>
      <point x="417" y="76"/>
      <point x="358" y="76" type="curve" smooth="yes"/>
      <point x="223" y="76"/>
      <point x="133" y="190"/>
      <point x="133" y="361" type="curve" smooth="yes"/>
      <point x="133" y="536"/>
      <point x="224" y="646"/>
      <point x="370" y="646" type="curve" smooth="yes"/>
      <point x="467" y="646"/>
      <point x="522" y="604"/>
      <point x="532" y="540" type="curve"/>
      <point x="633" y="540" type="line"/>
      <point x="623" y="656"/>
      <point x="528" y="734"/>
      <point x="370" y="734" type="curve" smooth="yes"/>
      <point x="160" y="734"/>
      <point x="30" y="591"/>
    </contour>
  </outline>
  <guideline angle="90" x="358" y="0"/>
</glyph>
<glyph name="L" format="2">
  <advance width="500"/>
  <unicode hex="004C"/>
  <anchor x="106" y="797" name="top"/>
  <anchor x="260" y="-57" name="bottom"/>
  <outline>
    <component base="I"/>
    <contour>
      <point x="140" y="87" type="line"/>
      <point x="140" y="0" type="line"/>
      <point x="497" y="0" type="line"/>
      <point x="497" y="87" type="line"/>
    </contour>
  </outline>
</glyph>
<glyph name="O" format="2">
  <advance width="754"/>
  <unicode hex="004F"/>
  <anchor x="365" y="797" name="top"/>
  <anchor x="72" y="722" name="tonos"/>
  <anchor x="400" y="0" name="ogonekUC"/>
  <outline>
    <contour>
      <point x="50" y="361" type="curve" smooth="yes"/>
      <point x="50" y="128.046"/>
      <point x="173.15" y="-12"/>
      <point x="378" y="-12" type="curve" smooth="yes"/>
      <point x="582.85" y="-12"/>
      <point x="706" y="128.046"/>
      <point x="706" y="361" type="curve" smooth="yes"/>
      <point x="706" y="593.954"/>
      <point x="582.85" y="734"/>
      <point x="378" y="734" type="curve" smooth="yes"/>
      <point x="173.15" y="734"/>
      <point x="50" y="593.954"/>
    </contour>
    <contour>
      <point x="153" y="361" type="curve" smooth="yes"/>
      <point x="153" y="552.333"/>
      <point x="226.947" y="646"/>
      <point x="378" y="646" type="curve" smooth="yes"/>
      <point x="529.053" y="646"/>
      <point x="603" y="552.333"/>
      <point x="603" y="361" type="curve" smooth="yes"/>
      <point x="603" y="169.667"/>
      <point x="529.053" y="76"/>
      <point x="378" y="76" type="curve" smooth="yes"/>
      <point x="226.947" y="76"/>
      <point x="153" y="169.667"/>
    </contour>
  </outline>
  <guideline angle="90" x="80" y="0"/>
  <guideline angle="90" x="100" y="0"/>
  <guideline angle="0" x="0" y="704"/>
</glyph>
<glyph name="P" format="2">
  <advance width="602"/>
  <unicode hex="0050"/>
  <anchor x="245" y="797" name="top"/>
  <anchor x="311" y="-75" name="bottom"/>
  <outline>
    <contour>
      <point x="137.497" y="635" type="line"/>
      <point x="327.165" y="635" type="line" smooth="yes"/>
      <point x="405.366" y="635"/>
      <point x="457.5" y="586.2"/>
      <point x="457.5" y="513" type="curve" smooth="yes"/>
      <point x="457.5" y="441.6"/>
      <point x="405.366" y="394"/>
      <point x="327.165" y="394" type="curve" smooth="yes"/>
      <point x="137.497" y="394" type="line"/>
      <point x="137.497" y="306" type="line"/>
      <point x="330.225" y="306" type="line" smooth="yes"/>
      <point x="462.99" y="306"/>
      <point x="551.5" y="389.2"/>
      <point x="551.5" y="514" type="curve" smooth="yes"/>
      <point x="551.5" y="638.8"/>
      <point x="462.99" y="722"/>
      <point x="330.225" y="722" type="curve" smooth="yes"/>
      <point x="137.497" y="722" type="line"/>
    </contour>
    <contour>
      <point x="70" y="0" type="line"/>
      <point x="170" y="0" type="line"/>
      <point x="170" y="722" type="line"/>
      <point x="70" y="722" type="line"/>
    </contour>
  </outline>
</glyph>
<glyph name="U" format="2">
  <advance width="716"/>
  <unicode hex="0055"/>
  <anchor x="358" y="797" name="top"/>
  <anchor x="358" y="-50" name="bottom"/>
  <anchor x="400" y="0" name="ogonekUC"/>
  <outline>
    <contour>
      <point x="70" y="322" type="line" smooth="yes"/>
      <point x="70" y="96"/>
      <point x="141" y="-14"/>
      <point x="358" y="-14" type="curve" smooth="yes"/>
      <point x="576" y="-14"/>
      <point x="646" y="78"/>
      <point x="646" y="322" type="curve" smooth="yes"/>
      <point x="646" y="722" type="line"/>
      <point x="546" y="722" type="line"/>
      <point x="546" y="322" type="line" smooth="yes"/>
      <point x="546" y="171"/>
      <point x="505" y="74"/>
      <point x="357" y="74" type="curve" smooth="yes"/>
      <point x="208" y="74"/>
      <point x="170" y="168"/>
      <point x="170" y="322" type="curve" smooth="yes"/>
      <point x="170" y="722" type="line"/>
      <point x="70" y="722" type="line"/>
    </contour>
  </outline>
  <guideline angle="90" x="358" y="0"/>
</glyph>
<glyph name="V" format="2">
  <advance width="664"/>
  <unicode hex="0056"/>
  <anchor x="332" y="797" name="top"/>
  <outline>
    <contour>
      <point x="644" y="722" type="line"/>
      <point x="531" y="722" type="line"/>
      <point x="328.176" y="118.625" type="line"/>
      <point x="335.824" y="118.625" type="line"/>
      <point x="133" y="722" type="line"/>
      <point x="20" y="722" type="line"/>
      <point x="277" y="0" type="line"/>
      <point x="387" y="0" type="line"/>
    </contour>
  </outline>
  <guideline angle="90" x="332" y="0"/>
  <guideline angle="109.593" x="277" y="0"/>
  <guideline angle="250.407" x="644" y="722"/>
  <guideline angle="71.3942" x="328" y="119"/>
  <guideline angle="288.606" x="133" y="722"/>
</glyph>
<glyph name="X" format="2">
  <advance width="684"/>
  <unicode hex="0058"/>
  <anchor x="342" y="797" name="top"/>
  <outline>
    <contour>
      <point x="541" y="0" type="line"/>
      <point x="669" y="0" type="line"/>
      <point x="177" y="722" type="line"/>
      <point x="49" y="722" type="line"/>
    </contour>
    <contour>
      <point x="288.505" y="397.356" type="line"/>
      <point x="15" y="0" type="line"/>
      <point x="133" y="0" type="line"/>
      <point x="343.115" y="326.615" type="line"/>
    </contour>
    <contour>
      <point x="394.519" y="372.628" type="line"/>
      <point x="634" y="722" type="line"/>
      <point x="516" y="722" type="line"/>
      <point x="341.024" y="443.296" type="line"/>
    </contour>
  </outline>
  <guideline angle="90" x="342" y="0"/>
  <guideline angle="0" x="0" y="353"/>
</glyph>
<glyph name="Y" format="2">
  <advance width="676"/>
  <unicode hex="0059"/>
  <anchor x="338" y="797" name="top"/>
  <outline>
    <contour>
      <point x="656" y="722" type="line"/>
      <point x="542" y="722" type="line"/>
      <point x="337.807" y="375" type="line"/>
      <point x="143" y="722" type="line"/>
      <point x="20" y="722" type="line"/>
      <point x="337.907" y="205.692" type="line"/>
    </contour>
    <contour>
      <point x="287" y="302" type="line"/>
      <point x="287" y="0" type="line"/>
      <point x="387" y="0" type="line"/>
      <point x="387" y="302" type="line"/>
    </contour>
  </outline>
  <guideline angle="90" x="338" y="0"/>
  <guideline angle="301.645" x="20" y="722"/>
  <guideline angle="58.3553" x="338" y="206"/>
</glyph>
<glyph name="grave" format="2">
  <advance width="260"/>
  <unicode hex="0060"/>
  <outline>
    <contour>
      <point x="230" y="580" type="line"/>
      <point x="130" y="730" type="line"/>
      <point x="30" y="730" type="line"/>
      <point x="160" y="580" type="line"/>
    </contour>
  </outline>
</glyph>
<glyph name="a" format="2">
  <advance width="566"/>
  <unicode hex="0061"/>
  <anchor x="283" y="580" name="top"/>
  <anchor x="275" y="580" name="t.ring"/>
  <anchor x="283" y="-50" name="bottom"/>
  <anchor x="506" y="0" name="ogonekLC"/>
  <outline>
    <contour>
      <point x="60" y="140" type="curve" smooth="yes"/>
      <point x="60" y="46"/>
      <point x="132.747" y="-14"/>
      <point x="247" y="-14" type="curve" smooth="yes"/>
      <point x="316" y="-14"/>
      <point x="354.168" y="8.74083"/>
      <point x="416" y="85" type="curve"/>
      <point x="402" y="103" type="line"/>
      <point x="407" y="69"/>
      <point x="404.066" y="49"/>
      <point x="416" y="0" type="curve"/>
      <point x="506" y="0" type="line"/>
      <point x="497" y="24"/>
      <point x="490" y="80.9521"/>
      <point x="490" y="182" type="curve" smooth="yes"/>
      <point x="490" y="359.575" type="line" smooth="yes"/>
      <point x="490" y="457.829"/>
      <point x="418.8" y="513"/>
      <point x="292" y="513" type="curve" smooth="yes"/>
      <point x="158" y="513"/>
      <point x="88" y="462"/>
      <point x="88" y="365" type="curve"/>
      <point x="182" y="365" type="line"/>
      <point x="182" y="414"/>
      <point x="223.548" y="444"/>
      <point x="290" y="444" type="curve" smooth="yes"/>
      <point x="360.316" y="444"/>
      <point x="400" y="409.727"/>
      <point x="400" y="349" type="curve" smooth="yes"/>
      <point x="400" y="204" type="line" smooth="yes"/>
      <point x="400" y="105"/>
      <point x="351.714" y="55"/>
      <point x="254" y="55" type="curve" smooth="yes"/>
      <point x="197" y="55"/>
      <point x="154" y="93"/>
      <point x="154" y="143" type="curve" smooth="yes"/>
      <point x="154" y="208"/>
      <point x="228.544" y="239"/>
      <point x="347" y="239" type="curve" smooth="yes"/>
      <point x="379" y="239"/>
      <point x="389.284" y="236.743"/>
      <point x="439" y="232" type="curve"/>
      <point x="420" y="300" type="line"/>
      <point x="408" y="303"/>
      <point x="363.792" y="308"/>
      <point x="335" y="308" type="curve" smooth="yes"/>
      <point x="160.997" y="308"/>
      <point x="60" y="251"/>
    </contour>
  </outline>
  <guideline angle="90" x="283" y="0"/>
</glyph>
<glyph name="b" format="2">
  <advance width="626"/>
  <unicode hex="0062"/>
  <anchor x="311" y="754" name="top"/>
  <anchor x="312" y="-88" name="bottom"/>
  <outline>
    <contour>
      <point x="74" y="0" type="curve"/>
      <point x="158.213" y="0" type="line"/>
      <point x="162.108" y="15.4447"/>
      <point x="165.149" y="33.6309"/>
      <point x="165.197" y="66.6242" type="curve" smooth="yes"/>
      <point x="165.211" y="76.6138"/>
      <point x="164.86" y="87.9607"/>
      <point x="164" y="101" type="curve"/>
      <point x="157.516" y="101.278" type="line"/>
      <point x="158.398" y="397.297" type="line"/>
      <point x="163" y="397.17" type="line"/>
      <point x="167.135" y="424.832"/>
      <point x="170" y="452.799"/>
      <point x="170" y="480.305" type="curve" smooth="yes"/>
      <point x="170" y="722" type="line"/>
      <point x="80" y="722" type="line"/>
      <point x="80" y="120.458" type="line" smooth="yes"/>
      <point x="80" y="80.6577"/>
      <point x="80" y="31.8311"/>
    </contour>
    <contour>
      <point x="119.529" y="72.0754" type="line"/>
      <point x="166.02" y="71.5973" type="line"/>
      <point x="200.373" y="21.4389"/>
      <point x="266.714" y="-12"/>
      <point x="331.873" y="-12" type="curve" smooth="yes"/>
      <point x="472.349" y="-12"/>
      <point x="566" y="103.019"/>
      <point x="566" y="275.547" type="curve" smooth="yes"/>
      <point x="566" y="418.019"/>
      <point x="477.105" y="513"/>
      <point x="343.761" y="513" type="curve" smooth="yes"/>
      <point x="270.325" y="513"/>
      <point x="203.579" y="482.259"/>
      <point x="169.896" y="436.148" type="curve"/>
      <point x="119.924" y="435.917" type="line"/>
    </contour>
    <contour>
      <point x="168" y="250.844" type="curve" smooth="yes"/>
      <point x="168" y="373.06"/>
      <point x="229.119" y="455"/>
      <point x="324.2" y="455" type="curve" smooth="yes"/>
      <point x="412.88" y="455"/>
      <point x="472" y="375.949"/>
      <point x="472" y="257.372" type="curve" smooth="yes"/>
      <point x="472" y="134.749"/>
      <point x="412.99" y="53"/>
      <point x="324.474" y="53" type="curve" smooth="yes"/>
      <point x="229.312" y="53"/>
      <point x="168" y="129.873"/>
    </contour>
  </outline>
  <guideline angle="90" x="313" y="0"/>
  <guideline angle="0" x="0" y="754"/>
  <guideline angle="90" x="170" y="0"/>
</glyph>
<glyph name="c" format="2">
  <advance width="580"/>
  <unicode hex="0063"/>
  <anchor x="296" y="580" name="top"/>
  <anchor x="285" y="0" name="b.cedilla"/>
  <outline>
    <contour>
      <point x="60" y="250" type="curve" smooth="yes"/>
      <point x="60" y="407.2"/>
      <point x="156.967" y="512"/>
      <point x="302.417" y="512" type="curve" smooth="yes"/>
      <point x="421.409" y="512"/>
      <point x="506.842" y="443.6"/>
      <point x="516" y="341" type="curve"/>
      <point x="421" y="341" type="line"/>
      <point x="413.398" y="404.6"/>
      <point x="365.417" y="447"/>
      <point x="301.047" y="447" type="curve" smooth="yes"/>
      <point x="209.881" y="447"/>
      <point x="154" y="372.062"/>
      <point x="154" y="249.805" type="curve" smooth="yes"/>
      <point x="154" y="126.014"/>
      <point x="210.795" y="53"/>
      <point x="298" y="53" type="curve" smooth="yes"/>
      <point x="366.609" y="53"/>
      <point x="418.009" y="99.4"/>
      <point x="425" y="169" type="curve"/>
      <point x="520" y="169" type="line"/>
      <point x="510.089" y="60.4"/>
      <point x="421.689" y="-12"/>
      <point x="299" y="-12" type="curve" smooth="yes"/>
      <point x="155.6" y="-12"/>
      <point x="60" y="92.8"/>
    </contour>
  </outline>
  <guideline angle="90" x="290" y="0"/>
  <guideline angle="0" x="0" y="580"/>
</glyph>
<glyph name="d" format="2">
  <advance width="611"/>
  <unicode hex="0064"/>
  <anchor x="307" y="748" name="top"/>
  <anchor x="600" y="722" name="caron_TR"/>
  <outline>
    <contour>
      <point x="441" y="0" type="line"/>
      <point x="531" y="0" type="line"/>
      <point x="531" y="722" type="line"/>
      <point x="441" y="722" type="line"/>
    </contour>
    <contour>
      <point x="60" y="253" type="curve" smooth="yes"/>
      <point x="60" y="103"/>
      <point x="143" y="-13"/>
      <point x="291" y="-13" type="curve" smooth="yes"/>
      <point x="360.682" y="-13"/>
      <point x="435.758" y="42.2992"/>
      <point x="450.441" y="69.8785" type="curve"/>
      <point x="450.009" y="414.509" type="line"/>
      <point x="416.552" y="467.981"/>
      <point x="372.151" y="513"/>
      <point x="287" y="513" type="curve" smooth="yes"/>
      <point x="165" y="513"/>
      <point x="60" y="421"/>
    </contour>
    <contour>
      <point x="150" y="248" type="curve" smooth="yes"/>
      <point x="150" y="346"/>
      <point x="185" y="449"/>
      <point x="294" y="449" type="curve" smooth="yes"/>
      <point x="405" y="449"/>
      <point x="441" y="344"/>
      <point x="441" y="244" type="curve" smooth="yes"/>
      <point x="441" y="129"/>
      <point x="393" y="55"/>
      <point x="304" y="55" type="curve" smooth="yes"/>
      <point x="202" y="55"/>
      <point x="150" y="152"/>
    </contour>
  </outline>
</glyph>
<glyph name="e" format="2">
  <advance width="576"/>
  <unicode hex="0065"/>
  <anchor x="288" y="580" name="top"/>
  <anchor x="288" y="-89" name="bottom"/>
  <anchor x="285" y="0" name="b.cedilla"/>
  <anchor x="326" y="0" name="ogonekLC"/>
  <outline>
    <contour>
      <point x="60" y="250" type="curve" smooth="yes"/>
      <point x="60" y="102"/>
      <point x="129" y="-14"/>
      <point x="292" y="-14" type="curve" smooth="yes"/>
      <point x="419" y="-14"/>
      <point x="496" y="55"/>
      <point x="516" y="160" type="curve"/>
      <point x="420" y="160" type="line"/>
      <point x="414" y="98"/>
      <point x="371" y="51"/>
      <point x="297.202" y="51" type="curve" smooth="yes"/>
      <point x="178.556" y="51"/>
      <point x="152.046" y="172.483"/>
      <point x="152.031" y="267.104" type="curve" smooth="yes"/>
      <point x="152.016" y="363.435"/>
      <point x="179.459" y="447"/>
      <point x="286.814" y="447" type="curve" smooth="yes"/>
      <point x="403.072" y="447"/>
      <point x="420.67" y="349"/>
      <point x="420.67" y="289.155" type="curve"/>
      <point x="494.239" y="236" type="line"/>
      <point x="515" y="236" type="line"/>
      <point x="515" y="282" type="line" smooth="yes"/>
      <point x="515" y="423"/>
      <point x="435" y="512"/>
      <point x="292" y="512" type="curve" smooth="yes"/>
      <point x="135" y="512"/>
      <point x="60" y="405"/>
    </contour>
    <contour>
      <point x="119" y="236" type="line"/>
      <point x="515" y="236" type="line"/>
      <point x="515" y="246.372" type="line"/>
      <point x="436" y="301" type="line"/>
      <point x="119" y="301" type="line"/>
    </contour>
  </outline>
  <guideline angle="90" x="288" y="0"/>
</glyph>
<glyph name="h" format="2">
  <advance width="595"/>
  <unicode hex="0068"/>
  <anchor x="300" y="-75" name="bottom"/>
  <anchor x="300" y="797" name="top"/>
  <anchor x="135" y="0" name="b.cedilla"/>
  <outline>
    <component base="l"/>
    <contour>
      <point x="150" y="322.561" type="line"/>
      <point x="170" y="323" type="line"/>
      <point x="170" y="396"/>
      <point x="227" y="453"/>
      <point x="302" y="453" type="curve" smooth="yes"/>
      <point x="387" y="453"/>
      <point x="425" y="409"/>
      <point x="425" y="311" type="curve" smooth="yes"/>
      <point x="425" y="0" type="line"/>
      <point x="515" y="0" type="line"/>
      <point x="515" y="329" type="line" smooth="yes"/>
      <point x="515" y="452"/>
      <point x="452" y="513"/>
      <point x="327" y="513" type="curve" smooth="yes"/>
      <point x="263" y="513"/>
      <point x="204.323" y="483.769"/>
      <point x="170" y="436" type="curve" smooth="yes"/>
      <point x="150" y="408.165" type="line"/>
    </contour>
  </outline>
  <guideline angle="90" x="170" y="0"/>
  <guideline angle="90" x="196" y="0"/>
</glyph>
<glyph name="p" format="2">
  <advance width="631"/>
  <unicode hex="0070"/>
  <outline>
    <contour>
      <point x="83" y="-200" type="line"/>
      <point x="173" y="-200" type="line"/>
      <point x="173" y="421" type="line" smooth="yes"/>
      <point x="173" y="447.072"/>
      <point x="172.33" y="473.93"/>
      <point x="170" y="500" type="curve"/>
      <point x="80" y="500" type="line"/>
      <point x="82" y="474"/>
      <point x="83" y="447"/>
      <point x="83" y="421" type="curve" smooth="yes"/>
    </contour>
    <contour>
      <point x="153.529" y="110.834" type="line"/>
      <point x="196.5" y="28.1129"/>
      <point x="257.235" y="-13"/>
      <point x="335.668" y="-13" type="curve" smooth="yes"/>
      <point x="476.872" y="-13"/>
      <point x="571" y="91.7443"/>
      <point x="571" y="271" type="curve" smooth="yes"/>
      <point x="571" y="419"/>
      <point x="472" y="513"/>
      <point x="337" y="513" type="curve" smooth="yes"/>
      <point x="253.689" y="513"/>
      <point x="185.519" y="476.532"/>
      <point x="153.924" y="406.567" type="curve"/>
    </contour>
    <contour>
      <point x="173" y="262" type="curve" smooth="yes"/>
      <point x="173" y="376"/>
      <point x="235" y="455"/>
      <point x="324" y="455" type="curve" smooth="yes"/>
      <point x="409" y="455"/>
      <point x="475" y="383"/>
      <point x="475" y="265" type="curve" smooth="yes"/>
      <point x="475" y="123.449"/>
      <point x="417.254" y="54"/>
      <point x="320.978" y="54" type="curve" smooth="yes"/>
      <point x="237.497" y="54"/>
      <point x="173" y="143.86"/>
    </contour>
  </outline>
</glyph>
<glyph name="w" format="2">
  <advance width="824"/>
  <unicode hex="0077"/>
  <anchor x="412" y="580" name="top"/>
  <outline>
    <contour>
      <point x="804" y="500" type="line"/>
      <point x="708" y="500" type="line"/>
      <point x="586.525" y="98.5142" type="line"/>
      <point x="593.475" y="98.5142" type="line"/>
      <point x="472" y="500" type="line"/>
      <point x="352" y="500" type="line"/>
      <point x="230.525" y="98.5142" type="line"/>
      <point x="237.475" y="98.5142" type="line"/>
      <point x="116" y="500" type="line"/>
      <point x="20" y="500" type="line"/>
      <point x="189" y="0" type="line"/>
      <point x="279" y="0" type="line"/>
      <point x="415.662" y="426.427" type="line"/>
      <point x="408.338" y="426.427" type="line"/>
      <point x="545" y="0" type="line"/>
      <point x="635" y="0" type="line"/>
    </contour>
  </outline>
  <guideline angle="108.675" x="189" y="0"/>
  <guideline angle="286.834" x="116" y="500"/>
  <guideline angle="73.1661" x="234" y="110"/>
  <guideline angle="252.23" x="412" y="415"/>
  <guideline angle="107.77" x="545" y="0"/>
  <guideline angle="286.834" x="472" y="500"/>
  <guideline angle="73.1661" x="590" y="110"/>
  <guideline angle="251.325" x="804" y="500"/>
  <guideline angle="90" x="234" y="0"/>
  <guideline angle="90" x="412" y="0"/>
  <guideline angle="90" x="590" y="0"/>
  <guideline angle="0" x="0" y="19"/>
  <guideline angle="0" x="0" y="485"/>
</glyph>
<glyph name="y" format="2">
  <advance width="545"/>
  <unicode hex="0079"/>
  <anchor x="269" y="580" name="top"/>
  <outline>
    <contour>
      <point x="161" y="-200" type="line"/>
      <point x="253" y="-200" type="line"/>
      <point x="525" y="500" type="line"/>
      <point x="428" y="500" type="line"/>
    </contour>
    <contour>
      <point x="287.78" y="110.158" type="line"/>
      <point x="125" y="500" type="line"/>
      <point x="20" y="500" type="line"/>
      <point x="239.912" y="-12.7858" type="line"/>
    </contour>
  </outline>
  <guideline angle="249.122" x="428" y="500"/>
  <guideline angle="68.7653" x="253" y="-200"/>
  <guideline angle="112.682" x="288" y="110"/>
  <guideline angle="293.212" x="20" y="500"/>
  <guideline angle="68.6821" x="240" y="-13"/>
</glyph>
<glyph name="braceleft" format="2">
  <advance width="487"/>
  <unicode hex="007B"/>
  <outline>
    <contour>
      <point x="80" y="224" type="line"/>
      <point x="176" y="205"/>
      <point x="200" y="146"/>
      <point x="200" y="70" type="curve" smooth="yes"/>
      <point x="200" y="44"/>
      <point x="194" y="-16"/>
      <point x="194" y="-42" type="curve" smooth="yes"/>
      <point x="194" y="-172"/>
      <point x="233" y="-240"/>
      <point x="408" y="-240" type="curve"/>
      <point x="408" y="-166" type="line"/>
      <point x="319" y="-166"/>
      <point x="286" y="-123"/>
      <point x="286" y="-46" type="curve" smooth="yes"/>
      <point x="286" y="-13"/>
      <point x="292" y="19"/>
      <point x="292" y="47" type="curve" smooth="yes"/>
      <point x="292" y="150"/>
      <point x="260" y="229"/>
      <point x="204" y="260" type="curve"/>
      <point x="260" y="316"/>
      <point x="292" y="358"/>
      <point x="292" y="450" type="curve" smooth="yes"/>
      <point x="292" y="490"/>
      <point x="286" y="524"/>
      <point x="286" y="559" type="curve" smooth="yes"/>
      <point x="286" y="641"/>
      <point x="318" y="686"/>
      <point x="408" y="686" type="curve"/>
      <point x="408" y="760" type="line"/>
      <point x="237" y="760"/>
      <point x="194" y="693"/>
      <point x="194" y="559" type="curve" smooth="yes"/>
      <point x="194" y="524"/>
      <point x="200" y="491"/>
      <point x="200" y="450" type="curve" smooth="yes"/>
      <point x="200" y="380"/>
      <point x="182" y="320"/>
      <point x="80" y="296" type="curve"/>
    </contour>
  </outline>
  <guideline angle="0" x="0" y="260"/>
</glyph>
<glyph name="currency" format="2">
  <advance width="619"/>
  <unicode hex="00A4"/>
  <outline>
    <contour>
      <point x="99" y="427" type="curve" smooth="yes"/>
      <point x="99" y="308.955"/>
      <point x="192.923" y="216"/>
      <point x="311.987" y="216" type="curve" smooth="yes"/>
      <point x="430.953" y="216"/>
      <point x="521" y="308.952"/>
      <point x="521" y="431" type="curve" smooth="yes"/>
      <point x="521" y="546.033"/>
      <point x="428.033" y="639"/>
      <point x="312.981" y="639" type="curve" smooth="yes"/>
      <point x="189.908" y="639"/>
      <point x="99" y="549.059"/>
    </contour>
    <contour>
      <point x="186.709" y="427.097" type="curve" smooth="yes"/>
      <point x="186.709" y="499.819"/>
      <point x="239.198" y="552"/>
      <point x="311.601" y="552" type="curve" smooth="yes"/>
      <point x="380.639" y="552"/>
      <point x="433.291" y="498.721"/>
      <point x="433.291" y="427.903" type="curve" smooth="yes"/>
      <point x="433.291" y="356.279"/>
      <point x="380.639" y="303"/>
      <point x="311.601" y="303" type="curve" smooth="yes"/>
      <point x="239.198" y="303"/>
      <point x="186.709" y="355.181"/>
    </contour>
    <contour>
      <point x="193.369" y="584.393" type="line"/>
      <point x="76" y="700" type="line"/>
      <point x="40" y="664" type="line"/>
      <point x="157.603" y="548.393" type="line"/>
    </contour>
    <contour>
      <point x="465.393" y="549.393" type="line"/>
      <point x="580" y="664" type="line"/>
      <point x="544" y="700" type="line"/>
      <point x="427.625" y="583.393" type="line"/>
    </contour>
    <contour>
      <point x="429.612" y="273.607" type="line"/>
      <point x="543" y="160" type="line"/>
      <point x="580" y="196" type="line"/>
      <point x="466.393" y="309.607" type="line"/>
    </contour>
    <contour>
      <point x="155.557" y="309.607" type="line"/>
      <point x="40" y="196" type="line"/>
      <point x="76" y="160" type="line"/>
      <point x="191.382" y="273.607" type="line"/>
    </contour>
  </outline>
  <guideline angle="135.246" x="193" y="584"/>
  <guideline angle="225.246" x="544" y="700"/>
  <guideline angle="45" x="465" y="549"/>
  <guideline angle="315.49" x="40" y="664"/>
  <guideline angle="225" x="76" y="700"/>
  <guideline angle="135" x="580" y="664"/>
  <guideline angle="44.2152" x="543" y="160"/>
  <guideline angle="315" x="40" y="196"/>
  <guideline angle="90" x="312" y="0"/>
  <guideline angle="0" x="0" y="431"/>
</glyph>
<glyph name="yen" format="2">
  <advance width="558"/>
  <unicode hex="00A5"/>
  <outline>
    <contour>
      <point x="556" y="722" type="line"/>
      <point x="451" y="722" type="line"/>
      <point x="275.841" y="354.166" type="line"/>
      <point x="286.209" y="354.189" type="line"/>
      <point x="109" y="722" type="line"/>
      <point x="4" y="722" type="line"/>
      <point x="223.766" y="287" type="line"/>
      <point x="229" y="287" type="line"/>
      <point x="229" y="0" type="line"/>
      <point x="331" y="0" type="line"/>
      <point x="331" y="287" type="line"/>
      <point x="338.5" y="287" type="line"/>
    </contour>
    <contour>
      <point x="213" y="338" type="line"/>
      <point x="14" y="338" type="line"/>
      <point x="14" y="287" type="line"/>
      <point x="244" y="287" type="line"/>
    </contour>
    <contour>
      <point x="316" y="287" type="line"/>
      <point x="546" y="287" type="line"/>
      <point x="546" y="338" type="line"/>
      <point x="349" y="338" type="line"/>
    </contour>
    <contour>
      <point x="130" y="508" type="line"/>
      <point x="14" y="508" type="line"/>
      <point x="14" y="457" type="line"/>
      <point x="155" y="457" type="line"/>
    </contour>
    <contour>
      <point x="407" y="457" type="line"/>
      <point x="546" y="457" type="line"/>
      <point x="546" y="508" type="line"/>
      <point x="432" y="508" type="line"/>
    </contour>
  </outline>
  <guideline angle="296.803" x="4" y="722"/>
  <guideline angle="63.4349" x="364" y="338"/>
  <guideline angle="90" x="276" y="0"/>
  <guideline angle="90" x="267" y="0"/>
  <guideline angle="90" x="289" y="0"/>
  <guideline angle="115.687" x="286" y="354"/>
  <guideline angle="244.567" x="451" y="722"/>
</glyph>
<glyph name="section" format="2">
  <advance width="467"/>
  <unicode hex="00A7"/>
  <outline>
    <contour>
      <point x="2.6427" y="332.037" type="curve" smooth="yes"/>
      <point x="2.6427" y="280.054"/>
      <point x="46.4078" y="244.123"/>
      <point x="67.5878" y="227.474" type="curve" smooth="yes"/>
      <point x="247.176" y="87.5182" type="line" smooth="yes"/>
      <point x="306.201" y="42.3401"/>
      <point x="323.058" y="23.0633"/>
      <point x="323.058" y="-8.469" type="curve" smooth="yes"/>
      <point x="323.058" y="-64.4968"/>
      <point x="269.839" y="-103"/>
      <point x="193.977" y="-103" type="curve" smooth="yes"/>
      <point x="145.137" y="-103"/>
      <point x="103.579" y="-87.0412"/>
      <point x="63" y="-62.1057" type="curve"/>
      <point x="63" y="-139.029" type="line"/>
      <point x="97.8046" y="-157.706"/>
      <point x="162.251" y="-173"/>
      <point x="219.358" y="-173" type="curve" smooth="yes"/>
      <point x="339.667" y="-173"/>
      <point x="417.058" y="-105.123"/>
      <point x="417.058" y="8.80955" type="curve" smooth="yes"/>
      <point x="417.058" y="54.9459"/>
      <point x="378.296" y="98.2875"/>
      <point x="331.774" y="135.821" type="curve" smooth="yes"/>
      <point x="130.295" y="290.533" type="line" smooth="yes"/>
      <point x="109.322" y="307.095"/>
      <point x="101.525" y="317.852"/>
      <point x="101.525" y="342.21" type="curve" smooth="yes"/>
      <point x="101.525" y="411.248"/>
      <point x="163.295" y="435.419"/>
      <point x="257.742" y="425.42" type="curve"/>
      <point x="179.844" y="480.196" type="line"/>
      <point x="55.8142" y="462.984"/>
      <point x="2.64269" y="418.643"/>
    </contour>
    <contour>
      <point x="64" y="588.083" type="curve" smooth="yes"/>
      <point x="64" y="509.418"/>
      <point x="126.386" y="462.213"/>
      <point x="173.378" y="428.626" type="curve" smooth="yes"/>
      <point x="350.404" y="302.685" type="line" smooth="yes"/>
      <point x="374.633" y="284.695"/>
      <point x="377.525" y="268.356"/>
      <point x="377.525" y="255.42" type="curve" smooth="yes"/>
      <point x="377.525" y="179.505"/>
      <point x="277.92" y="168.438"/>
      <point x="219.042" y="169.868" type="curve"/>
      <point x="303.802" y="113.964" type="line"/>
      <point x="407.053" y="139.334"/>
      <point x="461.239" y="191.16"/>
      <point x="461.239" y="266.101" type="curve" smooth="yes"/>
      <point x="461.239" y="327.802"/>
      <point x="424.933" y="347.125"/>
      <point x="365.532" y="394.207" type="curve" smooth="yes"/>
      <point x="242.627" y="488.489" type="line" smooth="yes"/>
      <point x="199.744" y="520.733"/>
      <point x="158" y="543.468"/>
      <point x="158" y="585.038" type="curve" smooth="yes"/>
      <point x="158" y="631.103"/>
      <point x="209.26" y="671"/>
      <point x="254.369" y="671" type="curve" smooth="yes"/>
      <point x="301.528" y="671"/>
      <point x="346.302" y="657.036"/>
      <point x="386.01" y="631.103" type="curve"/>
      <point x="386.01" y="699" type="line"/>
      <point x="342.855" y="722"/>
      <point x="297.81" y="735"/>
      <point x="247.951" y="735" type="curve" smooth="yes"/>
      <point x="142.168" y="735"/>
      <point x="64" y="676.152"/>
    </contour>
  </outline>
  <guideline angle="142.093" x="364" y="393"/>
  <guideline angle="324.09" x="174" y="428"/>
  <guideline angle="141.766" x="329" y="134"/>
  <guideline angle="321.814" x="68" y="226"/>
</glyph>
<glyph name="guillemotleft" format="2">
  <advance width="530"/>
  <unicode hex="00AB"/>
  <outline>
    <contour>
      <point x="275" y="57" type="line"/>
      <point x="148.711" y="262.22" type="line"/>
      <point x="148.711" y="241.78" type="line"/>
      <point x="275" y="447" type="line"/>
      <point x="197" y="447" type="line"/>
      <point x="60" y="252" type="line"/>
      <point x="197" y="57" type="line"/>
    </contour>
    <contour>
      <point x="470" y="57" type="line"/>
      <point x="343.711" y="262.22" type="line"/>
      <point x="343.711" y="241.78" type="line"/>
      <point x="470" y="447" type="line"/>
      <point x="392" y="447" type="line"/>
      <point x="255" y="252" type="line"/>
      <point x="392" y="57" type="line"/>
    </contour>
  </outline>
  <guideline angle="301.576" x="149" y="262"/>
  <guideline angle="238.424" x="275" y="447"/>
  <guideline angle="54.9095" x="60" y="252"/>
  <guideline angle="125.091" x="197" y="57"/>
</glyph>
<glyph name="uni00AD" format="2">
  <advance width="310"/>
  <unicode hex="00AD"/>
  <outline>
    <contour>
      <point x="270" y="264" type="line"/>
      <point x="270" y="334" type="line"/>
      <point x="40" y="334" type="line"/>
      <point x="40" y="264" type="line"/>
    </contour>
  </outline>
</glyph>
<glyph name="macron" format="2">
  <advance width="290"/>
  <unicode hex="00AF"/>
  <outline>
    <contour>
      <point x="290" y="600" type="line"/>
      <point x="290" y="670" type="line"/>
      <point x="0" y="670" type="line"/>
      <point x="0" y="600" type="line"/>
    </contour>
  </outline>
  <guideline angle="0" x="0" y="669"/>
  <guideline angle="0" x="0" y="580"/>
  <guideline angle="0" x="0" y="600"/>
  <guideline angle="90" x="145" y="0"/>
</glyph>
<glyph name="degree" format="2">
  <advance width="321"/>
  <unicode hex="00B0"/>
  <outline>
    <contour>
      <point x="160.5" y="720" type="curve" smooth="yes"/>
      <point x="99.5" y="720"/>
      <point x="50.5" y="671"/>
      <point x="50.5" y="610" type="curve" smooth="yes"/>
      <point x="50.5" y="549"/>
      <point x="99.5" y="500"/>
      <point x="160.5" y="500" type="curve" smooth="yes"/>
      <point x="220.5" y="500"/>
      <point x="270.5" y="550"/>
      <point x="270.5" y="610" type="curve" smooth="yes"/>
      <point x="270.5" y="671"/>
      <point x="221.5" y="720"/>
    </contour>
    <contour>
      <point x="160.5" y="540" type="curve" smooth="yes"/>
      <point x="121.5" y="540"/>
      <point x="89.5" y="571"/>
      <point x="89.5" y="610" type="curve" smooth="yes"/>
      <point x="89.5" y="649"/>
      <point x="121.5" y="680"/>
      <point x="160.5" y="680" type="curve" smooth="yes"/>
      <point x="199.5" y="680"/>
      <point x="230.5" y="649"/>
      <point x="230.5" y="610" type="curve" smooth="yes"/>
      <point x="230.5" y="571"/>
      <point x="199.5" y="540"/>
    </contour>
  </outline>
</glyph>
<glyph name="twosuperior" format="2">
  <advance width="353"/>
  <unicode hex="00B2"/>
  <outline>
    <contour>
      <point x="28" y="407" type="line"/>
      <point x="28" y="342" type="line"/>
      <point x="321" y="342" type="line"/>
      <point x="321" y="401" type="line"/>
      <point x="107" y="401" type="line"/>
      <point x="109.559" y="393.593" type="line"/>
      <point x="144.425" y="420.948" type="line" smooth="yes"/>
      <point x="300.66" y="543.525"/>
      <point x="315" y="568.241"/>
      <point x="315" y="611.79" type="curve" smooth="yes"/>
      <point x="315" y="699"/>
      <point x="257" y="734"/>
      <point x="172" y="734" type="curve" smooth="yes"/>
      <point x="97" y="734"/>
      <point x="41" y="684"/>
      <point x="37" y="615" type="curve"/>
      <point x="111" y="615" type="line"/>
      <point x="116" y="655"/>
      <point x="136" y="675"/>
      <point x="179.045" y="675" type="curve" smooth="yes"/>
      <point x="221" y="675"/>
      <point x="243" y="656"/>
      <point x="243" y="613.145" type="curve" smooth="yes"/>
      <point x="243" y="578.105"/>
      <point x="228.538" y="557.124"/>
      <point x="79.9637" y="445.9" type="curve" smooth="yes"/>
    </contour>
  </outline>
  <guideline angle="218.454" x="144" y="430"/>
  <guideline angle="36.8699" x="28" y="416"/>
  <guideline angle="0" x="0" y="-11"/>
</glyph>
<glyph name="threesuperior" format="2">
  <advance width="371"/>
  <unicode hex="00B3"/>
  <outline>
    <contour>
      <point x="31" y="452" type="line"/>
      <point x="35.4648" y="369.401"/>
      <point x="85.2288" y="331"/>
      <point x="177.582" y="331" type="curve" smooth="yes"/>
      <point x="280.547" y="331"/>
      <point x="344" y="378.733"/>
      <point x="344" y="447.16" type="curve" smooth="yes"/>
      <point x="344" y="497.573"/>
      <point x="309.558" y="533.581"/>
      <point x="249" y="543" type="curve"/>
      <point x="249.115" y="538.968" type="line"/>
      <point x="300.317" y="545.849"/>
      <point x="327" y="577.955"/>
      <point x="327" y="626.054" type="curve" smooth="yes"/>
      <point x="327" y="692.7"/>
      <point x="275.772" y="734"/>
      <point x="194.338" y="734" type="curve" smooth="yes"/>
      <point x="104.324" y="734"/>
      <point x="46" y="688.426"/>
      <point x="46" y="624" type="curve"/>
      <point x="110" y="624" type="line"/>
      <point x="115.665" y="661.388"/>
      <point x="140.856" y="676.648"/>
      <point x="182.153" y="676.648" type="curve" smooth="yes"/>
      <point x="226.238" y="676.648"/>
      <point x="252" y="655.257"/>
      <point x="252" y="620.23" type="curve" smooth="yes"/>
      <point x="252" y="586.724"/>
      <point x="228.552" y="562.824"/>
      <point x="174.265" y="562.824" type="curve" smooth="yes"/>
      <point x="154" y="562.824" type="line"/>
      <point x="154" y="509.848" type="line"/>
      <point x="170.8" y="509.848" type="line" smooth="yes"/>
      <point x="240.582" y="509.848"/>
      <point x="276" y="484.612"/>
      <point x="276" y="448.854" type="curve" smooth="yes"/>
      <point x="276" y="413.953"/>
      <point x="240.225" y="390"/>
      <point x="179.204" y="390" type="curve" smooth="yes"/>
      <point x="128.78" y="390"/>
      <point x="101.805" y="406.357"/>
      <point x="97" y="452" type="curve"/>
    </contour>
  </outline>
</glyph>
<glyph name="acute" format="2">
  <advance width="260"/>
  <unicode hex="00B4"/>
  <outline>
    <contour>
      <point x="30" y="580" type="line"/>
      <point x="100" y="580" type="line"/>
      <point x="230" y="730" type="line"/>
      <point x="130" y="730" type="line"/>
    </contour>
  </outline>
</glyph>
<glyph name="periodcentered" format="2">
  <advance width="208"/>
  <unicode hex="00B7"/>
  <outline>
    <contour>
      <point x="158" y="278" type="line"/>
      <point x="158" y="401" type="line"/>
      <point x="50" y="401" type="line"/>
      <point x="50" y="278" type="line"/>
    </contour>
  </outline>
</glyph>
<glyph name="cedilla" format="2">
  <advance width="287"/>
  <unicode hex="00B8"/>
  <outline>
    <contour>
      <point x="68" y="-104" type="line"/>
      <point x="95.2215" y="-113.998" type="line"/>
      <point x="105.625" y="-105.54"/>
      <point x="122.093" y="-100.496"/>
      <point x="139.308" y="-100.496" type="curve" smooth="yes"/>
      <point x="160.594" y="-100.496"/>
      <point x="182" y="-117.563"/>
      <point x="182" y="-138.313" type="curve" smooth="yes"/>
      <point x="182" y="-161.656"/>
      <point x="157.841" y="-177"/>
      <point x="126.467" y="-177" type="curve" smooth="yes"/>
      <point x="105.2" y="-177"/>
      <point x="74.5968" y="-169.448"/>
      <point x="49.9598" y="-158.121" type="curve"/>
      <point x="40.0589" y="-187.823" type="line"/>
      <point x="67.4562" y="-199.565"/>
      <point x="108.341" y="-210"/>
      <point x="139" y="-210" type="curve" smooth="yes"/>
      <point x="203.8" y="-210"/>
      <point x="247" y="-176"/>
      <point x="247" y="-125" type="curve" smooth="yes"/>
      <point x="247" y="-82.4"/>
      <point x="214.251" y="-54"/>
      <point x="166.126" y="-54" type="curve" smooth="yes"/>
      <point x="142.338" y="-54"/>
      <point x="124.101" y="-60.98"/>
      <point x="110.669" y="-70.0439" type="curve"/>
      <point x="116.02" y="-73.9752" type="line"/>
      <point x="145" y="10" type="line"/>
      <point x="106" y="10" type="line"/>
    </contour>
  </outline>
  <guideline angle="0" x="0" y="-53"/>
  <guideline angle="0" x="0" y="-73"/>
  <guideline angle="251.565" x="116" y="10"/>
</glyph>
<glyph name="ordmasculine" format="2">
  <advance width="418"/>
  <unicode hex="00BA"/>
  <outline>
    <contour>
      <point x="35" y="525" type="curve" smooth="yes"/>
      <point x="35" y="414"/>
      <point x="100" y="341"/>
      <point x="207" y="341" type="curve" smooth="yes"/>
      <point x="314" y="341"/>
      <point x="379" y="414"/>
      <point x="379" y="526" type="curve" smooth="yes"/>
      <point x="379" y="638"/>
      <point x="314" y="710"/>
      <point x="207" y="710" type="curve" smooth="yes"/>
      <point x="100" y="710"/>
      <point x="35" y="637"/>
    </contour>
    <contour>
      <point x="100" y="525" type="curve" smooth="yes"/>
      <point x="100" y="596"/>
      <point x="135" y="664"/>
      <point x="206" y="664" type="curve" smooth="yes"/>
      <point x="277" y="664"/>
      <point x="312" y="596"/>
      <point x="312" y="525" type="curve" smooth="yes"/>
      <point x="312" y="453"/>
      <point x="279" y="386"/>
      <point x="207" y="386" type="curve" smooth="yes"/>
      <point x="135" y="386"/>
      <point x="100" y="453"/>
    </contour>
    <contour>
      <point x="33" y="242" type="line"/>
      <point x="386" y="242" type="line"/>
      <point x="386" y="279" type="line"/>
      <point x="33" y="279" type="line"/>
    </contour>
  </outline>
</glyph>
<glyph name="ae" format="2">
  <advance width="905"/>
  <unicode hex="00E6"/>
  <outline>
    <contour>
      <point x="39" y="143.572" type="curve" smooth="yes"/>
      <point x="39" y="37"/>
      <point x="124.132" y="-14"/>
      <point x="222.576" y="-14" type="curve" smooth="yes"/>
      <point x="341.218" y="-14"/>
      <point x="441.025" y="60.0746"/>
      <point x="479.518" y="171.186" type="curve"/>
      <point x="429.092" y="171.186" type="line"/>
      <point x="442.57" y="60.0746"/>
      <point x="531.93" y="-14"/>
      <point x="654.533" y="-14" type="curve" smooth="yes"/>
      <point x="772" y="-14"/>
      <point x="845" y="54"/>
      <point x="858" y="157" type="curve"/>
      <point x="763" y="157" type="line"/>
      <point x="748" y="87"/>
      <point x="706" y="51"/>
      <point x="644.34" y="51" type="curve" smooth="yes"/>
      <point x="536.451" y="51"/>
      <point x="500.117" y="161.219"/>
      <point x="500.117" y="252.822" type="curve" smooth="yes"/>
      <point x="500.117" y="369.329"/>
      <point x="557.459" y="447"/>
      <point x="641.651" y="447" type="curve" smooth="yes"/>
      <point x="713.179" y="447"/>
      <point x="764.239" y="390.593"/>
      <point x="772" y="303" type="curve"/>
      <point x="477.5" y="303" type="line"/>
      <point x="477.5" y="238" type="line"/>
      <point x="865.5" y="238" type="line"/>
      <point x="865.5" y="280" type="line" smooth="yes"/>
      <point x="865.5" y="418.6"/>
      <point x="782.199" y="511"/>
      <point x="654.069" y="511" type="curve" smooth="yes"/>
      <point x="555.553" y="511"/>
      <point x="470.386" y="456.375"/>
      <point x="444.329" y="374.438" type="curve"/>
      <point x="465.975" y="373.941" type="line"/>
      <point x="445.545" y="456.776"/>
      <point x="364.452" y="512"/>
      <point x="256.909" y="512" type="curve" smooth="yes"/>
      <point x="139.876" y="512"/>
      <point x="66" y="446.6"/>
      <point x="66" y="365" type="curve"/>
      <point x="160" y="365" type="line"/>
      <point x="160" y="415"/>
      <point x="199" y="447"/>
      <point x="260.48" y="447" type="curve" smooth="yes"/>
      <point x="343.701" y="447"/>
      <point x="405" y="388.257"/>
      <point x="405" y="292" type="curve" smooth="yes"/>
      <point x="405" y="251.037" type="line" smooth="yes"/>
      <point x="405" y="138.347"/>
      <point x="340.2" y="51"/>
      <point x="244.048" y="51" type="curve" smooth="yes"/>
      <point x="186" y="51"/>
      <point x="133" y="83"/>
      <point x="133" y="142.647" type="curve" smooth="yes"/>
      <point x="133" y="227"/>
      <point x="237.008" y="247"/>
      <point x="307.485" y="247" type="curve" smooth="yes"/>
      <point x="357.996" y="247"/>
      <point x="393.514" y="243.793"/>
      <point x="423.635" y="242.241" type="curve"/>
      <point x="423.635" y="300.353" type="line"/>
      <point x="405.863" y="301.932"/>
      <point x="327.181" y="307"/>
      <point x="280.752" y="307" type="curve" smooth="yes"/>
      <point x="119.206" y="307"/>
      <point x="39" y="247"/>
    </contour>
  </outline>
</glyph>
<glyph name="oe" format="2">
  <advance width="982"/>
  <unicode hex="0153"/>
  <outline>
    <contour>
      <point x="60" y="250" type="curve" smooth="yes"/>
      <point x="60" y="89"/>
      <point x="157" y="-12"/>
      <point x="311" y="-12" type="curve" smooth="yes"/>
      <point x="465" y="-12"/>
      <point x="560" y="89"/>
      <point x="560" y="250" type="curve" smooth="yes"/>
      <point x="560" y="411"/>
      <point x="465" y="512"/>
      <point x="311" y="512" type="curve" smooth="yes"/>
      <point x="157" y="512"/>
      <point x="60" y="411"/>
    </contour>
    <contour>
      <point x="154" y="250" type="curve" smooth="yes"/>
      <point x="154" y="383"/>
      <point x="210" y="447"/>
      <point x="310" y="447" type="curve" smooth="yes"/>
      <point x="410" y="447"/>
      <point x="466" y="383"/>
      <point x="466" y="250" type="curve" smooth="yes"/>
      <point x="466" y="117"/>
      <point x="410" y="53"/>
      <point x="310" y="53" type="curve" smooth="yes"/>
      <point x="210" y="53"/>
      <point x="154" y="117"/>
    </contour>
    <contour>
      <point x="466" y="250" type="curve" smooth="yes"/>
      <point x="466" y="102"/>
      <point x="535" y="-14"/>
      <point x="698" y="-14" type="curve" smooth="yes"/>
      <point x="825" y="-14"/>
      <point x="902" y="55"/>
      <point x="922" y="160" type="curve"/>
      <point x="826" y="160" type="line"/>
      <point x="820" y="98"/>
      <point x="777" y="51"/>
      <point x="706" y="51" type="curve" smooth="yes"/>
      <point x="611" y="51"/>
      <point x="560" y="134"/>
      <point x="560" y="236" type="curve"/>
      <point x="921" y="236" type="line"/>
      <point x="921" y="282" type="line" smooth="yes"/>
      <point x="921" y="423"/>
      <point x="841" y="512"/>
      <point x="698" y="512" type="curve" smooth="yes"/>
      <point x="541" y="512"/>
      <point x="466" y="405"/>
    </contour>
    <contour>
      <point x="560" y="301" type="line"/>
      <point x="560" y="399"/>
      <point x="620" y="447"/>
      <point x="698" y="447" type="curve" smooth="yes"/>
      <point x="802" y="447"/>
      <point x="827" y="361"/>
      <point x="827" y="301" type="curve"/>
    </contour>
  </outline>
</glyph>
<glyph name="uni01DD" format="2">
  <advance width="576"/>
  <unicode hex="01DD"/>
  <anchor x="288" y="-82" name="top"/>
  <anchor x="288" y="587" name="bottom"/>
  <outline>
    <contour>
      <point x="516" y="248" type="curve" smooth="yes"/>
      <point x="516" y="396"/>
      <point x="447" y="512"/>
      <point x="284" y="512" type="curve" smooth="yes"/>
      <point x="157" y="512"/>
      <point x="80" y="443"/>
      <point x="60" y="338" type="curve"/>
      <point x="156" y="338" type="line"/>
      <point x="162" y="400"/>
      <point x="205" y="447"/>
      <point x="276" y="447" type="curve" smooth="yes"/>
      <point x="371" y="447"/>
      <point x="422" y="364"/>
      <point x="422" y="262" type="curve"/>
      <point x="61" y="262" type="line"/>
      <point x="61" y="216" type="line" smooth="yes"/>
      <point x="61" y="75"/>
      <point x="141" y="-14"/>
      <point x="284" y="-14" type="curve" smooth="yes"/>
      <point x="441" y="-14"/>
      <point x="516" y="93"/>
    </contour>
    <contour>
      <point x="422" y="197" type="line"/>
      <point x="422" y="99"/>
      <point x="362" y="51"/>
      <point x="284" y="51" type="curve" smooth="yes"/>
      <point x="180" y="51"/>
      <point x="155" y="137"/>
      <point x="155" y="197" type="curve"/>
    </contour>
  </outline>
</glyph>
<glyph name="uni0251" format="2">
  <advance width="606"/>
  <unicode hex="0251"/>
  <outline>
    <contour>
      <point x="297.478" y="52" type="curve" smooth="yes"/>
      <point x="378.185" y="52"/>
      <point x="429" y="139.442"/>
      <point x="429" y="241.129" type="curve" smooth="yes"/>
      <point x="429" y="358.548"/>
      <point x="361.246" y="448"/>
      <point x="281.536" y="448" type="curve" smooth="yes"/>
      <point x="203.819" y="448"/>
      <point x="154" y="362.569"/>
      <point x="154" y="259.014" type="curve" smooth="yes"/>
      <point x="154" y="147.482"/>
      <point x="211.79" y="52"/>
    </contour>
    <contour>
      <point x="526" y="0" type="line"/>
      <point x="436" y="0" type="line"/>
      <point x="436" y="75.1168" type="line"/>
      <point x="392.162" y="17.7833"/>
      <point x="328.366" y="-12"/>
      <point x="272.745" y="-12" type="curve" smooth="yes"/>
      <point x="156.989" y="-12"/>
      <point x="60" y="117.33"/>
      <point x="60" y="247.99" type="curve" smooth="yes"/>
      <point x="60" y="406.792"/>
      <point x="141.871" y="512"/>
      <point x="285.273" y="512" type="curve" smooth="yes"/>
      <point x="362.974" y="512"/>
      <point x="398.304" y="482.149"/>
      <point x="436" y="428.904" type="curve"/>
      <point x="436" y="500.364" type="line"/>
      <point x="526" y="500.364" type="line"/>
    </contour>
  </outline>
</glyph>
<glyph name="uni0262" format="2">
  <advance width="575"/>
  <unicode hex="0262"/>
  <outline>
    <contour>
      <point x="60" y="256.261" type="curve" smooth="yes"/>
      <point x="60" y="78.5064"/>
      <point x="153.522" y="-11.9986"/>
      <point x="337.205" y="-11.9986" type="curve" smooth="yes"/>
      <point x="397.988" y="-11.9986"/>
      <point x="456.676" y="-0.81996"/>
      <point x="511.871" y="22.9346" type="curve"/>
      <point x="511.871" y="266.07" type="line"/>
      <point x="326.725" y="266.07" type="line"/>
      <point x="326.725" y="205.286" type="line"/>
      <point x="441.306" y="205.286" type="line"/>
      <point x="441.306" y="69.2519" type="line"/>
      <point x="401.482" y="58.0732"/>
      <point x="361.658" y="52.4839"/>
      <point x="319.738" y="52.4839" type="curve" smooth="yes"/>
      <point x="215.764" y="52.4839"/>
      <point x="149.962" y="131.378"/>
      <point x="149.962" y="254.865" type="curve" smooth="yes"/>
      <point x="149.962" y="356.151"/>
      <point x="214.04" y="441.216"/>
      <point x="318.122" y="441.216" type="curve" smooth="yes"/>
      <point x="381.002" y="441.216"/>
      <point x="425.1" y="406.982"/>
      <point x="425.1" y="366.459" type="curve"/>
      <point x="514.666" y="366.459" type="line"/>
      <point x="514.666" y="444.011"/>
      <point x="431.524" y="512"/>
      <point x="322.533" y="512" type="curve" smooth="yes"/>
      <point x="159.431" y="512"/>
      <point x="60" y="406.444"/>
    </contour>
  </outline>
</glyph>
<glyph name="uni0265" format="2">
  <advance width="593"/>
  <unicode hex="0265"/>
  <outline>
    <contour>
      <point x="423" y="-200" type="line"/>
      <point x="513" y="-200" type="line"/>
      <point x="513" y="0" type="line"/>
      <point x="423" y="0" type="line"/>
    </contour>
    <contour>
      <point x="80" y="174" type="line" smooth="yes"/>
      <point x="80" y="54"/>
      <point x="141" y="-12"/>
      <point x="261" y="-12" type="curve" smooth="yes"/>
      <point x="336.107" y="-12"/>
      <point x="388.468" y="14.02"/>
      <point x="424" y="69" type="curve" smooth="yes"/>
      <point x="444" y="99.9467" type="line"/>
      <point x="444" y="181.462" type="line"/>
      <point x="424" y="181" type="line"/>
      <point x="424" y="109"/>
      <point x="367" y="53"/>
      <point x="287.401" y="53" type="curve" smooth="yes"/>
      <point x="216.691" y="53"/>
      <point x="170" y="97.19"/>
      <point x="170" y="172" type="curve" smooth="yes"/>
      <point x="170" y="500" type="line"/>
      <point x="80" y="500" type="line"/>
    </contour>
    <contour>
      <point x="514" y="0" type="line"/>
      <point x="514" y="500" type="line"/>
      <point x="424" y="500" type="line"/>
      <point x="424" y="0" type="line"/>
    </contour>
  </outline>
</glyph>
<glyph name="uni0266" format="2">
  <advance width="573"/>
  <unicode hex="0266"/>
  <outline>
    <contour>
      <point x="80" y="380" type="line"/>
      <point x="170" y="380" type="line"/>
      <point x="170" y="505.724" type="line" smooth="yes"/>
      <point x="170" y="591.108"/>
      <point x="189.651" y="662"/>
      <point x="278" y="662" type="curve" smooth="yes"/>
      <point x="319" y="662"/>
      <point x="352" y="652"/>
      <point x="377" y="631" type="curve"/>
      <point x="431" y="683" type="line"/>
      <point x="399" y="716"/>
      <point x="347" y="732"/>
      <point x="275" y="732" type="curve" smooth="yes"/>
      <point x="161.653" y="732"/>
      <point x="80" y="653.789"/>
      <point x="80" y="545" type="curve" smooth="yes"/>
    </contour>
    <contour>
      <point x="150" y="323" type="line"/>
      <point x="170" y="323" type="line"/>
      <point x="170" y="396"/>
      <point x="227" y="453"/>
      <point x="302" y="453" type="curve" smooth="yes"/>
      <point x="387" y="453"/>
      <point x="425" y="409"/>
      <point x="425" y="312" type="curve" smooth="yes"/>
      <point x="425" y="0" type="line"/>
      <point x="515" y="0" type="line"/>
      <point x="515" y="332" type="line" smooth="yes"/>
      <point x="515" y="453"/>
      <point x="451" y="513"/>
      <point x="327" y="513" type="curve" smooth="yes"/>
      <point x="263" y="513"/>
      <point x="206" y="483"/>
      <point x="172" y="436" type="curve"/>
      <point x="150" y="436" type="line"/>
    </contour>
    <contour>
      <point x="170" y="0" type="line"/>
      <point x="170" y="500" type="line"/>
      <point x="80" y="500" type="line"/>
      <point x="80" y="0" type="line"/>
    </contour>
  </outline>
</glyph>
<glyph name="uni0271" format="2">
  <advance width="896"/>
  <unicode hex="0271"/>
  <outline>
    <component base="m"/>
    <contour>
      <point x="830" y="134" type="line"/>
      <point x="740" y="134" type="line"/>
      <point x="740" y="-61" type="line" smooth="yes"/>
      <point x="740" y="-103"/>
      <point x="712" y="-129"/>
      <point x="678" y="-129" type="curve" smooth="yes"/>
      <point x="649" y="-129"/>
      <point x="624" y="-114"/>
      <point x="603" y="-85" type="curve"/>
      <point x="546" y="-142" type="line"/>
      <point x="581" y="-180"/>
      <point x="627" y="-199"/>
      <point x="684" y="-199" type="curve" smooth="yes"/>
      <point x="771" y="-199"/>
      <point x="830" y="-144"/>
      <point x="830" y="-60" type="curve" smooth="yes"/>
    </contour>
  </outline>
</glyph>
<glyph name="uni0273" format="2">
  <advance width="620"/>
  <unicode hex="0273"/>
  <outline>
    <contour>
      <point x="630.017" y="-134.843" type="line"/>
      <point x="580.509" y="-134.843" type="line" smooth="yes"/>
      <point x="535.754" y="-134.843"/>
      <point x="515.017" y="-111.779"/>
      <point x="515.017" y="-62" type="curve" smooth="yes"/>
      <point x="515.017" y="50" type="line"/>
      <point x="425.017" y="50" type="line"/>
      <point x="425.017" y="-62" type="line" smooth="yes"/>
      <point x="425.017" y="-162.147"/>
      <point x="467.724" y="-199.862"/>
      <point x="581.124" y="-199.862" type="curve" smooth="yes"/>
      <point x="630.017" y="-199.862" type="line"/>
    </contour>
    <contour>
      <point x="150" y="323" type="line"/>
      <point x="170" y="323" type="line"/>
      <point x="170" y="396"/>
      <point x="227" y="453"/>
      <point x="302" y="453" type="curve" smooth="yes"/>
      <point x="387" y="453"/>
      <point x="425" y="409"/>
      <point x="425" y="312" type="curve" smooth="yes"/>
      <point x="425" y="0" type="line"/>
      <point x="515" y="0" type="line"/>
      <point x="515" y="332" type="line" smooth="yes"/>
      <point x="515" y="453"/>
      <point x="451" y="513"/>
      <point x="327" y="513" type="curve" smooth="yes"/>
      <point x="263" y="513"/>
      <point x="206" y="483"/>
      <point x="172" y="436" type="curve"/>
      <point x="150" y="436" type="line"/>
    </contour>
    <contour>
      <point x="170" y="0" type="line"/>
      <point x="170" y="500" type="line"/>
      <point x="80" y="500" type="line"/>
      <point x="80" y="0" type="line"/>
    </contour>
  </outline>
</glyph>
<glyph name="uni027B" format="2">
  <advance width="409"/>
  <unicode hex="027B"/>
  <outline>
    <component base="uni0279"/>
    <contour>
      <point x="407.017" y="-134.843" type="line"/>
      <point x="357.509" y="-134.843" type="line" smooth="yes"/>
      <point x="312.754" y="-134.843"/>
      <point x="292.017" y="-111.779"/>
      <point x="292.017" y="-62" type="curve" smooth="yes"/>
      <point x="292.017" y="50" type="line"/>
      <point x="202.017" y="50" type="line"/>
      <point x="202.017" y="-62" type="line" smooth="yes"/>
      <point x="202.017" y="-162.147"/>
      <point x="244.724" y="-199.862"/>
      <point x="358.124" y="-199.862" type="curve" smooth="yes"/>
      <point x="407.017" y="-199.862" type="line"/>
    </contour>
  </outline>
</glyph>
<glyph name="uni0283" format="2">
  <advance width="365"/>
  <unicode hex="0283"/>
  <outline>
    <contour>
      <point x="20" y="-184" type="line"/>
      <point x="38" y="-195"/>
      <point x="64" y="-200"/>
      <point x="98.5964" y="-200" type="curve" smooth="yes"/>
      <point x="208" y="-200"/>
      <point x="259" y="-150"/>
      <point x="259" y="-34.1806" type="curve" smooth="yes"/>
      <point x="259" y="13.166"/>
      <point x="251.135" y="99.5374"/>
      <point x="233.431" y="226.568" type="curve" smooth="yes"/>
      <point x="214.606" y="361.644" type="line" smooth="yes"/>
      <point x="199.969" y="466.674"/>
      <point x="193" y="536.161"/>
      <point x="193" y="576.312" type="curve" smooth="yes"/>
      <point x="193" y="638"/>
      <point x="210" y="668"/>
      <point x="258" y="668" type="curve" smooth="yes"/>
      <point x="276" y="668"/>
      <point x="292" y="664"/>
      <point x="306" y="656" type="curve"/>
      <point x="345" y="722" type="line"/>
      <point x="331" y="731"/>
      <point x="309" y="735"/>
      <point x="276.369" y="735" type="curve" smooth="yes"/>
      <point x="161" y="735"/>
      <point x="109" y="685"/>
      <point x="109" y="574.126" type="curve" smooth="yes"/>
      <point x="109" y="532.062"/>
      <point x="116.33" y="457.648"/>
      <point x="130.696" y="349.334" type="curve" smooth="yes"/>
      <point x="149.211" y="209.737" type="line" smooth="yes"/>
      <point x="167.324" y="73.1719"/>
      <point x="176" y="-12.13"/>
      <point x="176" y="-46" type="curve" smooth="yes"/>
      <point x="176" y="-109"/>
      <point x="165" y="-135"/>
      <point x="114.337" y="-135" type="curve" smooth="yes"/>
      <point x="90" y="-135"/>
      <point x="73" y="-129"/>
      <point x="60" y="-118" type="curve"/>
    </contour>
    <contour>
      <point x="166" y="291" type="curve" smooth="yes"/>
      <point x="166" y="285"/>
      <point x="170" y="281"/>
      <point x="176" y="281" type="curve" smooth="yes"/>
      <point x="182" y="281"/>
      <point x="186" y="285"/>
      <point x="186" y="291" type="curve" smooth="yes"/>
      <point x="186" y="297"/>
      <point x="182" y="301"/>
      <point x="176" y="301" type="curve" smooth="yes"/>
      <point x="170" y="301"/>
      <point x="166" y="297"/>
    </contour>
  </outline>
  <guideline angle="97.5946" x="233" y="227"/>
  <guideline angle="97.5946" x="233" y="227"/>
</glyph>
<glyph name="uni0284" format="2">
  <advance width="350"/>
  <unicode hex="0284"/>
  <outline>
    <contour>
      <point x="214" y="-43" type="curve" smooth="yes"/>
      <point x="214" y="100" type="line"/>
      <point x="124" y="100" type="line"/>
      <point x="124" y="-41" type="line" smooth="yes"/>
      <point x="124" y="-100"/>
      <point x="105" y="-128"/>
      <point x="47.4929" y="-128" type="curve" smooth="yes"/>
      <point x="29.4262" y="-128"/>
      <point x="8.96311" y="-125.236"/>
      <point x="-7" y="-116" type="curve"/>
      <point x="-7" y="-190" type="line"/>
      <point x="13" y="-197"/>
      <point x="39.747" y="-200"/>
      <point x="66.9232" y="-200" type="curve" smooth="yes"/>
      <point x="171" y="-200"/>
      <point x="214" y="-156"/>
    </contour>
    <contour>
      <point x="124" y="575" type="curve" smooth="yes"/>
      <point x="124" y="310" type="line"/>
      <point x="24" y="310" type="line"/>
      <point x="24" y="245" type="line"/>
      <point x="124" y="245" type="line"/>
      <point x="124" y="0" type="line"/>
      <point x="214" y="0" type="line"/>
      <point x="214" y="245" type="line"/>
      <point x="334" y="245" type="line"/>
      <point x="334" y="310" type="line"/>
      <point x="214" y="310" type="line"/>
      <point x="214" y="573" type="line" smooth="yes"/>
      <point x="214" y="632"/>
      <point x="233" y="660"/>
      <point x="290.507" y="660" type="curve" smooth="yes"/>
      <point x="308.574" y="660"/>
      <point x="329.037" y="657.236"/>
      <point x="345" y="648" type="curve"/>
      <point x="345" y="722" type="line"/>
      <point x="325" y="729"/>
      <point x="298.253" y="732"/>
      <point x="271.077" y="732" type="curve" smooth="yes"/>
      <point x="167" y="732"/>
      <point x="124" y="688"/>
    </contour>
  </outline>
</glyph>
<glyph name="uni0292" format="2">
  <advance width="511"/>
  <unicode hex="0292"/>
  <anchor x="240" y="600" name="top"/>
  <outline>
    <contour>
      <point x="462" y="13" type="curve" smooth="yes"/>
      <point x="462" y="148.766"/>
      <point x="386.51" y="229.106"/>
      <point x="245.639" y="242.621" type="curve"/>
      <point x="251.562" y="232.334" type="line"/>
      <point x="430.307" y="418.936" type="line"/>
      <point x="430.307" y="500" type="line"/>
      <point x="50.3145" y="500" type="line"/>
      <point x="50.3145" y="431" type="line"/>
      <point x="347.282" y="431" type="line"/>
      <point x="343.609" y="439.641" type="line"/>
      <point x="135.817" y="224" type="line"/>
      <point x="135.817" y="187" type="line"/>
      <point x="288" y="187"/>
      <point x="372" y="124.277"/>
      <point x="372" y="10.6415" type="curve" smooth="yes"/>
      <point x="372" y="-78.3902"/>
      <point x="320.805" y="-135"/>
      <point x="240.29" y="-135" type="curve" smooth="yes"/>
      <point x="149.803" y="-135"/>
      <point x="112" y="-104.649"/>
      <point x="112" y="-32" type="curve"/>
      <point x="22" y="-32" type="line"/>
      <point x="22" y="-141.252"/>
      <point x="98.2376" y="-200"/>
      <point x="240.015" y="-200" type="curve" smooth="yes"/>
      <point x="370.494" y="-200"/>
      <point x="462" y="-112.197"/>
    </contour>
  </outline>
  <guideline angle="46.0809" x="136" y="224"/>
  <guideline angle="226.317" x="430" y="419"/>
</glyph>
<glyph name="uni02A1" format="2">
  <advance width="489"/>
  <unicode hex="02A1"/>
  <outline>
    <component base="uni0294"/>
    <contour>
      <point x="370" y="278" type="line"/>
      <point x="370" y="222" type="line"/>
      <point x="31" y="222" type="line"/>
      <point x="31" y="278" type="line"/>
    </contour>
  </outline>
</glyph>
<glyph name="hfishhookturned" format="2">
  <advance width="795"/>
  <unicode hex="02AE"/>
  <outline>
    <contour>
      <point x="625" y="0" type="line"/>
      <point x="625" y="-200" type="line"/>
      <point x="715" y="-200" type="line"/>
      <point x="715" y="0" type="line"/>
    </contour>
    <contour>
      <point x="281" y="380" type="line"/>
      <point x="371" y="380" type="line"/>
      <point x="371" y="545" type="line" smooth="yes"/>
      <point x="371" y="653.789"/>
      <point x="289.347" y="732"/>
      <point x="176" y="732" type="curve" smooth="yes"/>
      <point x="104" y="732"/>
      <point x="52" y="716"/>
      <point x="20" y="683" type="curve"/>
      <point x="74" y="631" type="line"/>
      <point x="99" y="652"/>
      <point x="132" y="662"/>
      <point x="173" y="662" type="curve" smooth="yes"/>
      <point x="261.349" y="662"/>
      <point x="281" y="591.108"/>
      <point x="281" y="505.724" type="curve" smooth="yes"/>
    </contour>
    <contour>
      <point x="281" y="174" type="line" smooth="yes"/>
      <point x="281" y="54"/>
      <point x="342" y="-12"/>
      <point x="462" y="-12" type="curve" smooth="yes"/>
      <point x="537.107" y="-12"/>
      <point x="589.468" y="14.02"/>
      <point x="625" y="69" type="curve" smooth="yes"/>
      <point x="645" y="99.9467" type="line"/>
      <point x="645" y="181.462" type="line"/>
      <point x="625" y="181" type="line"/>
      <point x="625" y="109"/>
      <point x="568" y="53"/>
      <point x="488.401" y="53" type="curve" smooth="yes"/>
      <point x="417.691" y="53"/>
      <point x="371" y="97.19"/>
      <point x="371" y="172" type="curve" smooth="yes"/>
      <point x="371" y="500" type="line"/>
      <point x="281" y="500" type="line"/>
    </contour>
    <contour>
      <point x="715" y="0" type="line"/>
      <point x="715" y="500" type="line"/>
      <point x="625" y="500" type="line"/>
      <point x="625" y="0" type="line"/>
    </contour>
  </outline>
</glyph>
<glyph name="uni02AF" format="2">
  <advance width="969"/>
  <unicode hex="02AF"/>
  <outline>
    <contour>
      <point x="261" y="174" type="line" smooth="yes"/>
      <point x="261" y="54"/>
      <point x="322" y="-12"/>
      <point x="442" y="-12" type="curve" smooth="yes"/>
      <point x="517.107" y="-12"/>
      <point x="569.468" y="14.02"/>
      <point x="605" y="69" type="curve" smooth="yes"/>
      <point x="625" y="99.9467" type="line"/>
      <point x="625" y="181.462" type="line"/>
      <point x="605" y="181" type="line"/>
      <point x="605" y="109"/>
      <point x="548" y="53"/>
      <point x="468.401" y="53" type="curve" smooth="yes"/>
      <point x="397.691" y="53"/>
      <point x="351" y="97.19"/>
      <point x="351" y="172" type="curve" smooth="yes"/>
      <point x="351" y="500" type="line"/>
      <point x="261" y="500" type="line"/>
    </contour>
    <contour>
      <point x="261.001" y="380" type="line"/>
      <point x="351.001" y="380" type="line"/>
      <point x="351.001" y="545" type="line" smooth="yes"/>
      <point x="351.001" y="653.789"/>
      <point x="269.348" y="732"/>
      <point x="156.001" y="732" type="curve" smooth="yes"/>
      <point x="84.001" y="732"/>
      <point x="32.001" y="716"/>
      <point x="0.00100708" y="683" type="curve"/>
      <point x="54.001" y="631" type="line"/>
      <point x="79.001" y="652"/>
      <point x="112.001" y="662"/>
      <point x="153.001" y="662" type="curve" smooth="yes"/>
      <point x="241.35" y="662"/>
      <point x="261.001" y="591.108"/>
      <point x="261.001" y="505.724" type="curve" smooth="yes"/>
    </contour>
    <contour>
      <point x="695" y="0" type="line"/>
      <point x="695" y="500" type="line"/>
      <point x="605" y="500" type="line"/>
      <point x="605" y="0" type="line"/>
    </contour>
    <contour>
      <point x="605" y="134" type="line"/>
      <point x="605" y="-60" type="line" smooth="yes"/>
      <point x="605" y="-144"/>
      <point x="664" y="-199"/>
      <point x="751" y="-199" type="curve" smooth="yes"/>
      <point x="808" y="-199"/>
      <point x="854" y="-180"/>
      <point x="889" y="-142" type="curve"/>
      <point x="832" y="-85" type="line"/>
      <point x="811" y="-114"/>
      <point x="786" y="-129"/>
      <point x="757" y="-129" type="curve" smooth="yes"/>
      <point x="723" y="-129"/>
      <point x="695" y="-103"/>
      <point x="695" y="-61" type="curve" smooth="yes"/>
      <point x="695" y="134" type="line"/>
    </contour>
  </outline>
</glyph>
<glyph name="uni02B7" format="2">
  <advance width="570"/>
  <unicode hex="02B7"/>
  <outline>
    <contour>
      <point x="559" y="700" type="line"/>
      <point x="492" y="700" type="line"/>
      <point x="405.509" y="415.519" type="line"/>
      <point x="412.452" y="415.507" type="line"/>
      <point x="327" y="700" type="line"/>
      <point x="243" y="700" type="line"/>
      <point x="156.509" y="415.519" type="line"/>
      <point x="163.452" y="415.507" type="line"/>
      <point x="78" y="700" type="line"/>
      <point x="10" y="700" type="line"/>
      <point x="129" y="350" type="line"/>
      <point x="192" y="350" type="line"/>
      <point x="288.664" y="651.427" type="line"/>
      <point x="281.336" y="651.427" type="line"/>
      <point x="378" y="350" type="line"/>
      <point x="441" y="350" type="line"/>
    </contour>
  </outline>
  <guideline angle="106.662" x="163" y="416"/>
  <guideline angle="253.153" x="243" y="700"/>
  <guideline angle="106.662" x="412" y="416"/>
  <guideline angle="253.153" x="492" y="700"/>
</glyph>
<glyph name="circumflex" format="2">
  <advance width="290"/>
  <unicode hex="02C6"/>
  <outline>
    <contour>
      <point x="0" y="580" type="line"/>
      <point x="70" y="580" type="line"/>
      <point x="155.923" y="670.28" type="line"/>
      <point x="134.077" y="670.28" type="line"/>
      <point x="220" y="580" type="line"/>
      <point x="290" y="580" type="line"/>
      <point x="190" y="730" type="line"/>
      <point x="100" y="730" type="line"/>
    </contour>
  </outline>
  <guideline angle="90" x="145" y="0"/>
</glyph>
<glyph name="uni02D1" format="2">
  <advance width="372"/>
  <unicode hex="02D1"/>
  <outline>
    <contour>
      <point x="261" y="500" type="line"/>
      <point x="110" y="500" type="line"/>
      <point x="160" y="329" type="line"/>
      <point x="212" y="329" type="line"/>
    </contour>
  </outline>
</glyph>
<glyph name="breve" format="2">
  <advance width="381"/>
  <unicode hex="02D8"/>
  <outline>
    <contour>
      <point x="190" y="580" type="curve" smooth="yes"/>
      <point x="263.565" y="580"/>
      <point x="322.952" y="633.912"/>
      <point x="331" y="708" type="curve"/>
      <point x="259" y="708" type="line"/>
      <point x="253.133" y="668.395"/>
      <point x="226.832" y="644"/>
      <point x="190" y="644" type="curve" smooth="yes"/>
      <point x="153.484" y="644"/>
      <point x="127.916" y="668.064"/>
      <point x="122" y="708" type="curve"/>
      <point x="50" y="708" type="line"/>
      <point x="58.0796" y="633.616"/>
      <point x="116.722" y="580"/>
    </contour>
  </outline>
  <guideline angle="90" x="190" y="0"/>
</glyph>
<glyph name="ring" format="2">
  <advance width="320"/>
  <unicode hex="02DA"/>
  <outline>
    <contour>
      <point x="160" y="840" type="curve" smooth="yes"/>
      <point x="85.9886" y="840"/>
      <point x="30" y="784.011"/>
      <point x="30" y="710" type="curve" smooth="yes"/>
      <point x="30" y="635.989"/>
      <point x="85.9886" y="580"/>
      <point x="160" y="580" type="curve" smooth="yes"/>
      <point x="232.83" y="580"/>
      <point x="290" y="637.17"/>
      <point x="290" y="710" type="curve" smooth="yes"/>
      <point x="290" y="784.011"/>
      <point x="234.011" y="840"/>
    </contour>
    <contour>
      <point x="160.425" y="650" type="curve" smooth="yes"/>
      <point x="126.173" y="650"/>
      <point x="100.071" y="675.496"/>
      <point x="100.071" y="710" type="curve" smooth="yes"/>
      <point x="100.071" y="744.504"/>
      <point x="126.173" y="770"/>
      <point x="160.425" y="770" type="curve" smooth="yes"/>
      <point x="194.659" y="770"/>
      <point x="219.929" y="744.52"/>
      <point x="219.929" y="710" type="curve" smooth="yes"/>
      <point x="219.929" y="675.48"/>
      <point x="194.659" y="650"/>
    </contour>
  </outline>
</glyph>
<glyph name="ogonek" format="2">
  <advance width="284"/>
  <unicode hex="02DB"/>
  <outline>
    <contour>
      <point x="50" y="-133" type="curve" smooth="yes"/>
      <point x="50" y="-180"/>
      <point x="83" y="-210"/>
      <point x="140" y="-210" type="curve" smooth="yes"/>
      <point x="176.482" y="-210"/>
      <point x="214.798" y="-198.338"/>
      <point x="233.977" y="-186.199" type="curve"/>
      <point x="210" y="-133.613" type="line"/>
      <point x="197.414" y="-137.737"/>
      <point x="182.266" y="-140"/>
      <point x="169" y="-140" type="curve" smooth="yes"/>
      <point x="136" y="-140"/>
      <point x="120" y="-129"/>
      <point x="120" y="-99" type="curve" smooth="yes"/>
      <point x="120" y="-56"/>
      <point x="152" y="-15.2727"/>
      <point x="170" y="0" type="curve"/>
      <point x="130" y="0" type="line"/>
      <point x="82" y="-42.7826"/>
      <point x="50" y="-95.9826"/>
    </contour>
  </outline>
</glyph>
<glyph name="tilde" format="2">
  <advance width="292"/>
  <unicode hex="02DC"/>
  <outline>
    <contour>
      <point x="0" y="600" type="curve"/>
      <point x="55" y="600" type="line"/>
      <point x="58" y="627"/>
      <point x="71" y="638"/>
      <point x="93" y="638" type="curve" smooth="yes"/>
      <point x="127" y="638"/>
      <point x="161" y="606"/>
      <point x="204" y="606" type="curve" smooth="yes"/>
      <point x="253" y="606"/>
      <point x="286" y="652"/>
      <point x="292" y="714" type="curve"/>
      <point x="237" y="714" type="line"/>
      <point x="234" y="686"/>
      <point x="222" y="676"/>
      <point x="201" y="676" type="curve" smooth="yes"/>
      <point x="166" y="676"/>
      <point x="135" y="708"/>
      <point x="92" y="708" type="curve" smooth="yes"/>
      <point x="41" y="708"/>
      <point x="6" y="662"/>
    </contour>
  </outline>
  <guideline angle="90" x="146" y="0"/>
  <guideline angle="0" x="0" y="680"/>
  <guideline angle="0" x="0" y="580"/>
  <guideline angle="0" x="0" y="600"/>
</glyph>
<glyph name="uni0309" format="2">
  <unicode hex="0309"/>
  <anchor x="0" y="530" name="_top"/>
  <outline>
    <contour>
      <point x="111" y="667" type="curve" smooth="yes"/>
      <point x="111" y="723"/>
      <point x="63" y="761"/>
      <point x="-7" y="761" type="curve" smooth="yes"/>
      <point x="-58" y="761"/>
      <point x="-103" y="738"/>
      <point x="-111" y="684" type="curve"/>
      <point x="-51" y="684" type="line"/>
      <point x="-48" y="710"/>
      <point x="-27" y="721"/>
      <point x="-8" y="721" type="curve" smooth="yes"/>
      <point x="29" y="721"/>
      <point x="51" y="701"/>
      <point x="51" y="668" type="curve" smooth="yes"/>
      <point x="51" y="624"/>
      <point x="19" y="597"/>
      <point x="-45" y="592" type="curve"/>
      <point x="-45" y="530" type="line"/>
      <point x="15" y="530" type="line"/>
      <point x="15" y="570" type="line"/>
      <point x="79" y="588"/>
      <point x="111" y="621"/>
    </contour>
  </outline>
</glyph>
<glyph name="uni030B" format="2">
  <unicode hex="030B"/>
  <anchor x="0" y="580" name="_top"/>
  <outline>
    <contour>
      <point x="10" y="751" type="line"/>
      <point x="-80" y="751" type="line"/>
      <point x="-150" y="580" type="line"/>
      <point x="-100" y="580" type="line"/>
    </contour>
    <contour>
      <point x="150" y="751" type="line"/>
      <point x="60" y="751" type="line"/>
      <point x="-10" y="580" type="line"/>
      <point x="40" y="580" type="line"/>
    </contour>
  </outline>
  <guideline angle="90" x="-286" y="0"/>
</glyph>
<glyph name="uni030F" format="2">
  <advance width="1"/>
  <unicode hex="030F"/>
  <anchor x="0" y="580" name="_top"/>
  <outline>
    <contour>
      <point x="-39.5" y="580" type="line"/>
      <point x="-139.5" y="730" type="line"/>
      <point x="-239.5" y="730" type="line"/>
      <point x="-109.5" y="580" type="line"/>
    </contour>
    <contour>
      <point x="140.5" y="580" type="line"/>
      <point x="40.5" y="730" type="line"/>
      <point x="-59.5" y="730" type="line"/>
      <point x="70.5" y="580" type="line"/>
    </contour>
  </outline>
</glyph>
<glyph name="uni0311" format="2">
  <unicode hex="0311"/>
  <anchor x="0" y="600" name="_top"/>
  <outline>
    <contour>
      <point x="138" y="600" type="line"/>
      <point x="126.12" y="676.8"/>
      <point x="70.52" y="728"/>
      <point x="-1" y="728" type="curve" smooth="yes"/>
      <point x="-77.0909" y="728"/>
      <point x="-133.491" y="676.8"/>
      <point x="-142" y="600" type="curve"/>
      <point x="-70" y="600" type="line"/>
      <point x="-64.6409" y="638.4"/>
      <point x="-36.6581" y="664"/>
      <point x="-0.0430441" y="664" type="curve" smooth="yes"/>
      <point x="35.3354" y="664"/>
      <point x="62.5526" y="638.4"/>
      <point x="68" y="600" type="curve"/>
    </contour>
  </outline>
</glyph>
<glyph name="uni0326" format="2">
  <unicode hex="0326"/>
  <anchor x="-297" y="-57" name="_bottom"/>
  <outline>
    <contour>
      <point x="-207" y="-57" type="line"/>
      <point x="-327" y="-57" type="line"/>
      <point x="-387" y="-307" type="line"/>
      <point x="-317" y="-307" type="line"/>
    </contour>
  </outline>
  <guideline angle="90" x="-387" y="0"/>
  <guideline angle="90" x="-207" y="0"/>
  <guideline angle="0" x="0" y="-57"/>
  <guideline angle="0" x="0" y="-307"/>
  <guideline angle="90" x="-297" y="0"/>
</glyph>
<glyph name="uni033B" format="2">
  <advance width="1"/>
  <unicode hex="033B"/>
  <outline>
    <contour>
      <point x="-226" y="-280" type="line"/>
      <point x="-366" y="-280" type="line"/>
      <point x="-366" y="-140" type="line"/>
      <point x="-226" y="-140" type="line"/>
    </contour>
    <contour>
      <point x="-186" y="-320" type="line"/>
      <point x="-186" y="-100" type="line"/>
      <point x="-406" y="-100" type="line"/>
      <point x="-406" y="-320" type="line"/>
    </contour>
  </outline>
</glyph>
<glyph name="Theta" format="2">
  <advance width="754"/>
  <unicode hex="0398"/>
  <outline>
    <component base="Omicron"/>
    <contour>
      <point x="558" y="332" type="line"/>
      <point x="558" y="414" type="line"/>
      <point x="198" y="414" type="line"/>
      <point x="198" y="332" type="line"/>
    </contour>
  </outline>
</glyph>
<glyph name="alpha" format="2">
  <advance width="608"/>
  <unicode hex="03B1"/>
  <anchor x="270" y="600" name="tonos.top"/>
  <outline>
    <contour>
      <point x="278" y="53" type="curve" smooth="yes"/>
      <point x="178" y="53"/>
      <point x="128" y="151.961"/>
      <point x="128" y="239" type="curve" smooth="yes"/>
      <point x="128" y="327.987"/>
      <point x="162" y="438"/>
      <point x="278" y="438" type="curve" smooth="yes"/>
      <point x="362" y="438"/>
      <point x="425" y="350"/>
      <point x="425" y="246" type="curve" smooth="yes"/>
      <point x="425" y="173"/>
      <point x="392" y="53"/>
    </contour>
    <contour>
      <point x="265" y="-15" type="curve" smooth="yes"/>
      <point x="341" y="-15"/>
      <point x="396" y="13"/>
      <point x="434" y="75" type="curve"/>
      <point x="510" y="91" type="line"/>
      <point x="510" y="505" type="line"/>
      <point x="429" y="505" type="line"/>
      <point x="429" y="429" type="line"/>
      <point x="385.841" y="490.258"/>
      <point x="340.267" y="514"/>
      <point x="267" y="514" type="curve" smooth="yes"/>
      <point x="166" y="514"/>
      <point x="39" y="452"/>
      <point x="39" y="253" type="curve" smooth="yes"/>
      <point x="39" y="148"/>
      <point x="81" y="-15"/>
    </contour>
    <contour>
      <point x="523" y="-11" type="curve" smooth="yes"/>
      <point x="538" y="-11"/>
      <point x="552" y="-9"/>
      <point x="566" y="-3" type="curve"/>
      <point x="566" y="64" type="line"/>
      <point x="558.231" y="61.1915"/>
      <point x="550.151" y="61"/>
      <point x="547.67" y="61" type="curve" smooth="yes"/>
      <point x="525" y="61"/>
      <point x="510.352" y="77.0044"/>
      <point x="510" y="91" type="curve" smooth="yes"/>
      <point x="509.773" y="100" type="line"/>
      <point x="434" y="100.147" type="line"/>
      <point x="434" y="75" type="line"/>
      <point x="441" y="28"/>
      <point x="452" y="-11"/>
    </contour>
  </outline>
</glyph>
<glyph name="gamma" format="2">
  <advance width="561"/>
  <unicode hex="03B3"/>
  <outline>
    <contour>
      <point x="157" y="467" type="line" smooth="yes"/>
      <point x="141.622" y="502.799"/>
      <point x="99.7993" y="514"/>
      <point x="55.5793" y="514" type="curve" smooth="yes"/>
      <point x="46.2015" y="514"/>
      <point x="37.4787" y="513.496"/>
      <point x="20" y="511" type="curve"/>
      <point x="20" y="437" type="line"/>
      <point x="26.2976" y="438"/>
      <point x="39.9577" y="438.976"/>
      <point x="48.3256" y="438.872" type="curve" smooth="yes"/>
      <point x="66.3468" y="438.65"/>
      <point x="79.1504" y="429.166"/>
      <point x="88" y="409" type="curve" smooth="yes"/>
      <point x="253" y="33" type="line"/>
      <point x="253" y="-200" type="line"/>
      <point x="343" y="-200" type="line"/>
      <point x="343" y="27" type="line"/>
      <point x="541" y="503" type="line"/>
      <point x="450" y="503" type="line"/>
      <point x="295.484" y="126" type="line"/>
      <point x="303.484" y="126" type="line"/>
    </contour>
  </outline>
  <guideline angle="293.693" x="88" y="409"/>
  <guideline angle="67.4143" x="343" y="27"/>
  <guideline angle="247.65" x="450" y="503"/>
  <guideline angle="113.178" x="303" y="126"/>
</glyph>
<glyph name="delta" format="2">
  <advance width="616"/>
  <unicode hex="03B4"/>
  <outline>
    <contour>
      <point x="361" y="416.277" type="line"/>
      <point x="366.538" y="412.782" type="line" smooth="yes"/>
      <point x="437.945" y="367.707"/>
      <point x="467" y="311.789"/>
      <point x="467" y="228.621" type="curve" smooth="yes"/>
      <point x="467" y="154.361"/>
      <point x="424" y="51"/>
      <point x="319" y="51" type="curve" smooth="yes"/>
      <point x="309" y="51" type="line" smooth="yes"/>
      <point x="212" y="51"/>
      <point x="154" y="129.274"/>
      <point x="154" y="231.761" type="curve" smooth="yes"/>
      <point x="154" y="325.961"/>
      <point x="203" y="416.277"/>
      <point x="329" y="416.277" type="curve" smooth="yes"/>
    </contour>
    <contour>
      <point x="102" y="642.341" type="line"/>
      <point x="306.035" y="476.619" type="line"/>
      <point x="308.714" y="486.129" type="line"/>
      <point x="176.488" y="468.83"/>
      <point x="60" y="424.288"/>
      <point x="60" y="227.618" type="curve" smooth="yes"/>
      <point x="60" y="102.694"/>
      <point x="135" y="-16"/>
      <point x="299.289" y="-16" type="curve" smooth="yes"/>
      <point x="440" y="-16"/>
      <point x="556" y="71.0702"/>
      <point x="556" y="235.739" type="curve" smooth="yes"/>
      <point x="556" y="335.996"/>
      <point x="508.978" y="413.982"/>
      <point x="436" y="473.477" type="curve" smooth="yes"/>
      <point x="200.083" y="665.807" type="line"/>
      <point x="200.083" y="653" type="line"/>
      <point x="502" y="653" type="line"/>
      <point x="502" y="722" type="line"/>
      <point x="102" y="722" type="line"/>
    </contour>
  </outline>
  <guideline angle="318.894" x="102" y="655"/>
  <guideline angle="139.994" x="436" y="473"/>
</glyph>
<glyph name="zeta" format="2">
  <advance width="444"/>
  <unicode hex="03B6"/>
  <outline>
    <contour>
      <point x="78" y="653" type="line"/>
      <point x="297" y="653" type="line"/>
      <point x="293.469" y="659.615" type="line"/>
      <point x="164.881" y="561.022"/>
      <point x="32" y="375.05"/>
      <point x="32" y="199.695" type="curve" smooth="yes"/>
      <point x="32" y="187.631" type="line" smooth="yes"/>
      <point x="32" y="78.9564"/>
      <point x="102" y="0"/>
      <point x="197" y="0" type="curve" smooth="yes"/>
      <point x="336" y="0" type="line" smooth="yes"/>
      <point x="353.2" y="0"/>
      <point x="363" y="-21.1881"/>
      <point x="363" y="-40.8026" type="curve" smooth="yes"/>
      <point x="363" y="-52.6599"/>
      <point x="359.419" y="-71.8145"/>
      <point x="354" y="-89" type="curve" smooth="yes"/>
      <point x="319" y="-200" type="line"/>
      <point x="394" y="-200" type="line"/>
      <point x="435" y="-58" type="line" smooth="yes"/>
      <point x="437.287" y="-50.0774"/>
      <point x="438" y="-41"/>
      <point x="438" y="-32" type="curve" smooth="yes"/>
      <point x="438" y="33.453"/>
      <point x="405.827" y="69"/>
      <point x="347" y="69" type="curve" smooth="yes"/>
      <point x="223" y="69" type="line" smooth="yes"/>
      <point x="163.789" y="69"/>
      <point x="126" y="115.608"/>
      <point x="126" y="188.636" type="curve" smooth="yes"/>
      <point x="126" y="220.807" type="line" smooth="yes"/>
      <point x="126" y="283.211"/>
      <point x="197.665" y="535.61"/>
      <point x="427" y="666.606" type="curve"/>
      <point x="427" y="722" type="line"/>
      <point x="78" y="722" type="line"/>
    </contour>
  </outline>
</glyph>
<glyph name="eta" format="2">
  <advance width="608"/>
  <unicode hex="03B7"/>
  <anchor x="280" y="600" name="tonos.top"/>
  <outline>
    <contour>
      <point x="91" y="0" type="line"/>
      <point x="180.849" y="0" type="line"/>
      <point x="180.849" y="435.319" type="line"/>
      <point x="177.222" y="434.906" type="line"/>
      <point x="172.721" y="479.131"/>
      <point x="142.831" y="500"/>
      <point x="85" y="500" type="curve" smooth="yes"/>
      <point x="64.3297" y="500"/>
      <point x="52.67" y="498.12"/>
      <point x="32" y="492" type="curve"/>
      <point x="32" y="424" type="line"/>
      <point x="38.4064" y="425.818"/>
      <point x="53.6073" y="427"/>
      <point x="60.6838" y="427" type="curve" smooth="yes"/>
      <point x="77.6795" y="427"/>
      <point x="91" y="414.258"/>
      <point x="91" y="398" type="curve" smooth="yes"/>
    </contour>
    <contour>
      <point x="436" y="-200" type="line"/>
      <point x="526" y="-200" type="line"/>
      <point x="526" y="10" type="line"/>
      <point x="436" y="10" type="line"/>
    </contour>
    <contour>
      <point x="161" y="322.78" type="line"/>
      <point x="181" y="322.78" type="line"/>
      <point x="181" y="396"/>
      <point x="238" y="453"/>
      <point x="313" y="453" type="curve" smooth="yes"/>
      <point x="398" y="453"/>
      <point x="436" y="409"/>
      <point x="436" y="311" type="curve" smooth="yes"/>
      <point x="436" y="0" type="line"/>
      <point x="526" y="0" type="line"/>
      <point x="526" y="329" type="line" smooth="yes"/>
      <point x="526" y="452"/>
      <point x="463" y="513"/>
      <point x="338" y="513" type="curve" smooth="yes"/>
      <point x="274" y="513"/>
      <point x="215.323" y="483.769"/>
      <point x="181" y="436" type="curve" smooth="yes"/>
      <point x="161" y="408.165" type="line"/>
    </contour>
  </outline>
  <guideline angle="90" x="181" y="0"/>
</glyph>
<glyph name="theta" format="2">
  <advance width="528"/>
  <unicode hex="03B8"/>
  <outline>
    <contour>
      <point x="469.658" y="300.327" type="curve" smooth="yes"/>
      <point x="469.658" y="435.76" type="line" smooth="yes"/>
      <point x="469.658" y="654.012"/>
      <point x="404.835" y="734"/>
      <point x="260.245" y="734" type="curve" smooth="yes"/>
      <point x="121.307" y="734"/>
      <point x="58.2186" y="660.296"/>
      <point x="58.2186" y="436.064" type="curve" smooth="yes"/>
      <point x="58.2186" y="300.327" type="line" smooth="yes"/>
      <point x="58.2186" y="71.8912"/>
      <point x="114" y="-12"/>
      <point x="264" y="-12" type="curve" smooth="yes"/>
      <point x="414" y="-12"/>
      <point x="469.658" y="71.8912"/>
    </contour>
    <contour>
      <point x="264" y="665" type="curve" smooth="yes"/>
      <point x="354.485" y="665"/>
      <point x="379.967" y="606.313"/>
      <point x="379.967" y="436.495" type="curve" smooth="yes"/>
      <point x="379.967" y="300.251" type="line" smooth="yes"/>
      <point x="379.967" y="131.547"/>
      <point x="353.907" y="57"/>
      <point x="264" y="57" type="curve" smooth="yes"/>
      <point x="174.164" y="57"/>
      <point x="148.027" y="131.262"/>
      <point x="148.027" y="300.251" type="curve" smooth="yes"/>
      <point x="148.027" y="436.329" type="line" smooth="yes"/>
      <point x="148.027" y="606.155"/>
      <point x="174.473" y="665"/>
    </contour>
    <contour>
      <point x="414" y="403" type="line"/>
      <point x="114" y="403" type="line"/>
      <point x="114" y="348" type="line"/>
      <point x="414" y="348" type="line"/>
    </contour>
  </outline>
  <guideline angle="90" x="264" y="0"/>
</glyph>
<glyph name="iota" format="2">
  <advance width="268"/>
  <unicode hex="03B9"/>
  <anchor x="125" y="600" name="tonos.top"/>
  <outline>
    <contour>
      <point x="80" y="59" type="line" smooth="yes"/>
      <point x="80" y="21.9106"/>
      <point x="114.773" y="-3"/>
      <point x="152.614" y="-3" type="curve" smooth="yes"/>
      <point x="248" y="-3" type="line"/>
      <point x="248" y="66" type="line"/>
      <point x="240.2" y="64"/>
      <point x="227.525" y="61"/>
      <point x="217.775" y="61" type="curve" smooth="yes"/>
      <point x="199.25" y="61"/>
      <point x="170" y="70"/>
      <point x="170" y="98" type="curve" smooth="yes"/>
      <point x="170" y="500" type="line"/>
      <point x="80" y="500" type="line"/>
    </contour>
  </outline>
</glyph>
<glyph name="lambda" format="2">
  <advance width="549"/>
  <unicode hex="03BB"/>
  <outline>
    <contour>
      <point x="176" y="627" type="curve" smooth="yes"/>
      <point x="378" y="78" type="line" smooth="yes"/>
      <point x="399.805" y="18.7366"/>
      <point x="423.811" y="-3"/>
      <point x="478.306" y="-3" type="curve" smooth="yes"/>
      <point x="491.626" y="-3"/>
      <point x="510.635" y="-1.673"/>
      <point x="529" y="1" type="curve"/>
      <point x="529" y="70" type="line"/>
      <point x="486.512" y="69.6095"/>
      <point x="473.954" y="73.8287"/>
      <point x="467" y="93" type="curve" smooth="yes"/>
      <point x="282" y="603" type="line" smooth="yes"/>
      <point x="258.947" y="666.552"/>
      <point x="230.972" y="731.844"/>
      <point x="150.108" y="732.022" type="curve" smooth="yes"/>
      <point x="135.637" y="732.053"/>
      <point x="111.372" y="730"/>
      <point x="87" y="726" type="curve"/>
      <point x="87" y="652" type="line"/>
      <point x="106.89" y="655"/>
      <point x="118.11" y="656.059"/>
      <point x="138" y="656" type="curve" smooth="yes"/>
      <point x="157.939" y="655.941"/>
      <point x="170.328" y="642.417"/>
    </contour>
    <contour>
      <point x="242.581" y="555.08" type="line"/>
      <point x="20" y="2" type="line"/>
      <point x="111" y="2" type="line"/>
      <point x="284.432" y="445.139" type="line"/>
    </contour>
  </outline>
  <guideline angle="109.938" x="467" y="93"/>
  <guideline angle="290.201" x="176" y="627"/>
  <guideline angle="248.038" x="243" y="555"/>
  <guideline angle="68.6684" x="111" y="2"/>
  <guideline angle="68.6684" x="111" y="2"/>
  <guideline angle="290.201" x="176" y="627"/>
  <guideline angle="109.938" x="467" y="93"/>
</glyph>
<glyph name="mu" format="2">
  <advance width="637"/>
  <unicode hex="03BC"/>
  <outline>
    <contour>
      <point x="70" y="-200" type="line"/>
      <point x="160" y="-200" type="line"/>
      <point x="160" y="500" type="line"/>
      <point x="70" y="500" type="line"/>
    </contour>
    <contour>
      <point x="543" y="-15" type="curve" smooth="yes"/>
      <point x="571.021" y="-15"/>
      <point x="597.512" y="-11.3651"/>
      <point x="624" y="-1.36066" type="curve"/>
      <point x="624" y="64" type="line"/>
      <point x="604.477" y="57.8992"/>
      <point x="583.421" y="55"/>
      <point x="563" y="55" type="curve" smooth="yes"/>
      <point x="525" y="55"/>
      <point x="513" y="86"/>
      <point x="513" y="131" type="curve" smooth="yes"/>
      <point x="513" y="500" type="line"/>
      <point x="423" y="500" type="line"/>
      <point x="423" y="112.647" type="line" smooth="yes"/>
      <point x="423" y="29.5798"/>
      <point x="463.467" y="-15"/>
    </contour>
    <contour>
      <point x="140" y="25.9481" type="line"/>
      <point x="160" y="12.2787" type="line" smooth="yes"/>
      <point x="185.332" y="-5.03471"/>
      <point x="219" y="-15"/>
      <point x="262" y="-15" type="curve" smooth="yes"/>
      <point x="338.673" y="-15"/>
      <point x="403.188" y="19.2587"/>
      <point x="436.805" y="85.2178" type="curve"/>
      <point x="433" y="187.338" type="line"/>
      <point x="423" y="178" type="line"/>
      <point x="423" y="104"/>
      <point x="354" y="49"/>
      <point x="281" y="49" type="curve" smooth="yes"/>
      <point x="215" y="49"/>
      <point x="160" y="103"/>
      <point x="160" y="169" type="curve"/>
      <point x="140" y="169" type="line"/>
    </contour>
  </outline>
</glyph>
<glyph name="sigma" format="2">
  <advance width="608"/>
  <unicode hex="03C3"/>
  <outline>
    <component base="o"/>
    <contour>
      <point x="454" y="431" type="line"/>
      <point x="599" y="431" type="line"/>
      <point x="599" y="500" type="line"/>
      <point x="348" y="500" type="line"/>
    </contour>
  </outline>
</glyph>
<glyph name="phi" format="2">
  <advance width="727"/>
  <unicode hex="03C6"/>
  <outline>
    <contour>
      <point x="318" y="-200" type="line"/>
      <point x="408" y="-200" type="line"/>
      <point x="408" y="443" type="line"/>
      <point x="514.967" y="443"/>
      <point x="581.937" y="371.273"/>
      <point x="582" y="259" type="curve" smooth="yes"/>
      <point x="582.072" y="130.903"/>
      <point x="508.073" y="54.454"/>
      <point x="391.57" y="62.5829" type="curve"/>
      <point x="391.57" y="-6.55928" type="line"/>
      <point x="550.124" y="-7.03678"/>
      <point x="667" y="98.6878"/>
      <point x="667" y="258.809" type="curve" smooth="yes"/>
      <point x="667" y="419.37"/>
      <point x="562.759" y="512"/>
      <point x="384" y="512" type="curve" smooth="yes"/>
      <point x="318" y="512" type="line"/>
    </contour>
    <contour>
      <point x="334.558" y="62.6108" type="line"/>
      <point x="220.315" y="54.1406"/>
      <point x="145" y="133.47"/>
      <point x="145" y="258.617" type="curve" smooth="yes"/>
      <point x="145" y="351.492"/>
      <point x="174.185" y="405.697"/>
      <point x="244" y="438" type="curve"/>
      <point x="244" y="502.282" type="line"/>
      <point x="131.697" y="486.63"/>
      <point x="60" y="394.826"/>
      <point x="60" y="259" type="curve" smooth="yes"/>
      <point x="60" y="92.0094"/>
      <point x="170.476" y="-6.51789"/>
      <point x="334.558" y="-6.58939" type="curve"/>
    </contour>
  </outline>
</glyph>
<glyph name="psi" format="2">
  <advance width="736"/>
  <unicode hex="03C8"/>
  <outline>
    <contour>
      <point x="324" y="-200" type="line"/>
      <point x="414" y="-200" type="line"/>
      <point x="414" y="722" type="line"/>
      <point x="324" y="722" type="line"/>
    </contour>
    <contour>
      <point x="399.736" y="-11.823" type="line"/>
      <point x="505.205" y="-11.6542"/>
      <point x="656" y="15.0404"/>
      <point x="656" y="182" type="curve" smooth="yes"/>
      <point x="656" y="500" type="line"/>
      <point x="566" y="500" type="line"/>
      <point x="566" y="159" type="line" smooth="yes"/>
      <point x="566" y="86.8866"/>
      <point x="472.733" y="60.2776"/>
      <point x="399.736" y="59.5159" type="curve"/>
    </contour>
    <contour>
      <point x="342.321" y="60.3207" type="line"/>
      <point x="271.81" y="60.2219"/>
      <point x="170" y="72.5188"/>
      <point x="170" y="159" type="curve" smooth="yes"/>
      <point x="170" y="500" type="line"/>
      <point x="80" y="500" type="line"/>
      <point x="80" y="181" type="line" smooth="yes"/>
      <point x="80" y="77.4037"/>
      <point x="159.881" y="-12.3731"/>
      <point x="342.321" y="-12.4311" type="curve"/>
    </contour>
  </outline>
</glyph>
<glyph name="uni0414" format="2">
  <advance width="744"/>
  <unicode hex="0414"/>
  <outline>
    <contour>
      <point x="142.028" y="69.8684" type="line"/>
      <point x="222.706" y="69.9662"/>
      <point x="291.087" y="277.37"/>
      <point x="300" y="524.222" type="curve" smooth="yes"/>
      <point x="304" y="635" type="line"/>
      <point x="543" y="635" type="line"/>
      <point x="543" y="60" type="line"/>
      <point x="645" y="60" type="line"/>
      <point x="645" y="722" type="line"/>
      <point x="210" y="722" type="line"/>
      <point x="204" y="585.182" type="line" smooth="yes"/>
      <point x="191.795" y="306.877"/>
      <point x="137.724" y="70.496"/>
      <point x="34.1369" y="69.7375" type="curve"/>
      <point x="33.975" y="59.7941" type="line"/>
      <point x="141.57" y="59.8339" type="line"/>
    </contour>
    <contour>
      <point x="724" y="-160" type="line"/>
      <point x="724" y="87" type="line"/>
      <point x="20" y="87" type="line"/>
      <point x="20" y="-160" type="line"/>
      <point x="120" y="-160" type="line"/>
      <point x="120" y="-1" type="line"/>
      <point x="624" y="-1" type="line"/>
      <point x="624" y="-160" type="line"/>
    </contour>
  </outline>
</glyph>
<glyph name="uni0416" format="2">
  <advance width="959"/>
  <unicode hex="0416"/>
  <outline>
    <contour>
      <point x="360" y="415" type="line"/>
      <point x="122" y="722" type="line"/>
      <point x="-2" y="722" type="line"/>
      <point x="253.43" y="402.46" type="line"/>
      <point x="252.702" y="420.202" type="line"/>
      <point x="208.124" y="420.235"/>
      <point x="182.019" y="395.203"/>
      <point x="160.823" y="357.302" type="curve" smooth="yes"/>
      <point x="-39" y="0" type="line"/>
      <point x="96" y="0" type="line"/>
      <point x="259.239" y="298.544" type="line" smooth="yes"/>
      <point x="280.542" y="337.506"/>
      <point x="305.514" y="350.977"/>
      <point x="360" y="351.33" type="curve"/>
    </contour>
    <contour>
      <point x="430" y="445" type="line"/>
      <point x="302" y="445" type="line"/>
      <point x="302" y="351" type="line"/>
      <point x="430" y="351" type="line"/>
    </contour>
    <contour>
      <point x="430" y="0" type="line"/>
      <point x="530" y="0" type="line"/>
      <point x="530" y="722" type="line"/>
      <point x="430" y="722" type="line"/>
    </contour>
    <contour>
      <point x="600" y="415" type="line"/>
      <point x="600" y="351.33" type="line"/>
      <point x="654.486" y="350.977"/>
      <point x="679.458" y="337.506"/>
      <point x="700.761" y="298.544" type="curve" smooth="yes"/>
      <point x="864" y="0" type="line"/>
      <point x="999" y="0" type="line"/>
      <point x="799.177" y="357.302" type="line" smooth="yes"/>
      <point x="777.981" y="395.203"/>
      <point x="751.876" y="420.235"/>
      <point x="707.298" y="420.202" type="curve"/>
      <point x="706.57" y="402.46" type="line"/>
      <point x="962" y="722" type="line"/>
      <point x="838" y="722" type="line"/>
    </contour>
    <contour>
      <point x="530" y="445" type="line"/>
      <point x="530" y="351" type="line"/>
      <point x="658" y="351" type="line"/>
      <point x="658" y="445" type="line"/>
    </contour>
  </outline>
</glyph>
<glyph name="uni041B" format="2">
  <advance width="704"/>
  <unicode hex="041B"/>
  <outline>
    <contour>
      <point x="15" y="1.8989" type="line"/>
      <point x="29" y="-4.0337"/>
      <point x="49" y="-7"/>
      <point x="68" y="-7" type="curve" smooth="yes"/>
      <point x="189.62" y="-7"/>
      <point x="242.766" y="106.15"/>
      <point x="255" y="392.438" type="curve" smooth="yes"/>
      <point x="268.984" y="722" type="line"/>
      <point x="164.892" y="722" type="line"/>
      <point x="154" y="416.395" type="line" smooth="yes"/>
      <point x="144.45" y="150.343"/>
      <point x="123.568" y="81"/>
      <point x="51.6311" y="81" type="curve" smooth="yes"/>
      <point x="43" y="81"/>
      <point x="26" y="81.9982"/>
      <point x="15" y="86.9892" type="curve"/>
    </contour>
    <contour>
      <point x="533" y="722.293" type="line"/>
      <point x="533" y="-0.0786743" type="line"/>
      <point x="634" y="-0.0786743" type="line"/>
      <point x="634" y="722" type="line"/>
    </contour>
    <contour>
      <point x="170.951" y="635" type="line"/>
      <point x="533.021" y="635" type="line"/>
      <point x="533" y="722" type="line"/>
      <point x="174.892" y="722" type="line"/>
    </contour>
  </outline>
  <guideline angle="87.5586" x="255" y="394"/>
  <guideline angle="87.5707" x="255" y="392"/>
  <guideline angle="267.941" x="165" y="722"/>
</glyph>
<glyph name="uni0424" format="2">
  <advance width="740"/>
  <unicode hex="0424"/>
  <outline>
    <contour>
      <point x="415" y="721" type="line"/>
      <point x="315" y="721" type="line"/>
      <point x="315" y="-1" type="line"/>
      <point x="415" y="-1" type="line"/>
    </contour>
    <contour>
      <point x="414.8" y="65" type="line"/>
      <point x="439.323" y="65" type="line" smooth="yes"/>
      <point x="589.729" y="65"/>
      <point x="690" y="184.2"/>
      <point x="690" y="363" type="curve" smooth="yes"/>
      <point x="690" y="535.8"/>
      <point x="589.729" y="651"/>
      <point x="439.323" y="651" type="curve" smooth="yes"/>
      <point x="414.8" y="651" type="line"/>
      <point x="414.6" y="563" type="line"/>
      <point x="439.323" y="563" type="line" smooth="yes"/>
      <point x="527.929" y="563"/>
      <point x="587" y="482.387"/>
      <point x="587" y="361.467" type="curve" smooth="yes"/>
      <point x="587" y="236.387"/>
      <point x="527.929" y="153"/>
      <point x="439.323" y="153" type="curve" smooth="yes"/>
      <point x="414.6" y="153" type="line"/>
    </contour>
    <contour>
      <point x="315.4" y="153" type="line"/>
      <point x="290.689" y="153" type="line" smooth="yes"/>
      <point x="208.076" y="153"/>
      <point x="153" y="236.6"/>
      <point x="153" y="362" type="curve" smooth="yes"/>
      <point x="153" y="483.2"/>
      <point x="208.076" y="564"/>
      <point x="290.689" y="564" type="curve" smooth="yes"/>
      <point x="315.4" y="564" type="line"/>
      <point x="315.2" y="652" type="line"/>
      <point x="290.689" y="652" type="line" smooth="yes"/>
      <point x="146.276" y="652"/>
      <point x="50" y="536.4"/>
      <point x="50" y="363" type="curve" smooth="yes"/>
      <point x="50" y="184.2"/>
      <point x="146.276" y="65"/>
      <point x="290.689" y="65" type="curve" smooth="yes"/>
      <point x="315.2" y="65" type="line"/>
    </contour>
  </outline>
</glyph>
<glyph name="uni042C" format="2">
  <advance width="594"/>
  <unicode hex="042C"/>
  <outline>
    <contour>
      <point x="70" y="0" type="line"/>
      <point x="170" y="0" type="line"/>
      <point x="170" y="722" type="line"/>
      <point x="70" y="722" type="line"/>
    </contour>
    <contour>
      <point x="308.193" y="329" type="line" smooth="yes"/>
      <point x="396.916" y="329"/>
      <point x="441" y="281.4"/>
      <point x="441" y="210" type="curve" smooth="yes"/>
      <point x="441" y="136.8"/>
      <point x="396.916" y="88"/>
      <point x="308.193" y="88" type="curve" smooth="yes"/>
      <point x="150" y="88" type="line"/>
      <point x="150" y="0" type="line"/>
      <point x="329.602" y="0" type="line" smooth="yes"/>
      <point x="467.28" y="0"/>
      <point x="544" y="83.6"/>
      <point x="544" y="209" type="curve" smooth="yes"/>
      <point x="544" y="333.8"/>
      <point x="467.28" y="417"/>
      <point x="329.602" y="417" type="curve" smooth="yes"/>
      <point x="150" y="417" type="line"/>
      <point x="150" y="329" type="line"/>
    </contour>
  </outline>
</glyph>
<glyph name="uni0431" format="2">
  <advance width="586"/>
  <unicode hex="0431"/>
  <outline>
    <contour>
      <point x="50" y="267.573" type="curve" smooth="yes"/>
      <point x="50" y="93.6979"/>
      <point x="144.092" y="-14"/>
      <point x="296" y="-14" type="curve" smooth="yes"/>
      <point x="441.93" y="-14"/>
      <point x="536" y="87.4278"/>
      <point x="536" y="244.772" type="curve" smooth="yes"/>
      <point x="536" y="393.109"/>
      <point x="446.492" y="492"/>
      <point x="310.408" y="492" type="curve" smooth="yes"/>
      <point x="231.588" y="492"/>
      <point x="161.115" y="456"/>
      <point x="121.242" y="380" type="curve"/>
      <point x="119.263" y="381" type="line"/>
      <point x="148.105" y="534.811"/>
      <point x="204.592" y="583.763"/>
      <point x="392.669" y="599.961" type="curve" smooth="yes"/>
      <point x="490.065" y="608.407"/>
      <point x="516.211" y="666.019"/>
      <point x="526.105" y="722" type="curve"/>
      <point x="465.447" y="722" type="line"/>
      <point x="446.947" y="700.626"/>
      <point x="419.446" y="687.571"/>
      <point x="310.589" y="668" type="curve" smooth="yes"/>
      <point x="176.524" y="643.897"/>
      <point x="50" y="587.012"/>
    </contour>
    <contour>
      <point x="144" y="236" type="curve" smooth="yes"/>
      <point x="144" y="353.226"/>
      <point x="208.797" y="427"/>
      <point x="297.447" y="427" type="curve" smooth="yes"/>
      <point x="384.167" y="427"/>
      <point x="442" y="355.445"/>
      <point x="442" y="248.15" type="curve" smooth="yes"/>
      <point x="442" y="132.961"/>
      <point x="387.173" y="51"/>
      <point x="296" y="51" type="curve" smooth="yes"/>
      <point x="210.417" y="51"/>
      <point x="144" y="124.465"/>
    </contour>
  </outline>
</glyph>
<glyph name="uni0434" format="2">
  <advance width="604"/>
  <unicode hex="0434"/>
  <outline>
    <contour>
      <point x="520" y="50" type="line"/>
      <point x="520" y="500" type="line"/>
      <point x="150" y="500" type="line"/>
      <point x="147" y="429" type="line" smooth="yes"/>
      <point x="138.457" y="226.82"/>
      <point x="110" y="50.218"/>
      <point x="64.1774" y="50.218" type="curve"/>
      <point x="64.219" y="39.6419" type="line"/>
      <point x="150.326" y="39.5174" type="line"/>
      <point x="149.994" y="50.0863" type="line"/>
      <point x="197.379" y="50.0863"/>
      <point x="226.594" y="176.833"/>
      <point x="237.813" y="395.939" type="curve" smooth="yes"/>
      <point x="239.813" y="435" type="line"/>
      <point x="430" y="435" type="line"/>
      <point x="430" y="50" type="line"/>
    </contour>
    <contour>
      <point x="20" y="65" type="line"/>
      <point x="20" y="-160" type="line"/>
      <point x="110" y="-160" type="line"/>
      <point x="110" y="0" type="line"/>
      <point x="494" y="0" type="line"/>
      <point x="494" y="-160" type="line"/>
      <point x="584" y="-160" type="line"/>
      <point x="584" y="65" type="line"/>
    </contour>
  </outline>
</glyph>
<glyph name="uni043D" format="2">
  <advance width="610"/>
  <unicode hex="043D"/>
  <outline>
    <contour>
      <point x="80" y="0" type="line"/>
      <point x="170" y="0" type="line"/>
      <point x="170" y="233" type="line"/>
      <point x="440" y="233" type="line"/>
      <point x="440" y="0" type="line"/>
      <point x="530" y="0" type="line"/>
      <point x="530" y="500" type="line"/>
      <point x="440" y="500" type="line"/>
      <point x="440" y="296" type="line"/>
      <point x="170" y="296" type="line"/>
      <point x="170" y="500" type="line"/>
      <point x="80" y="500" type="line"/>
    </contour>
  </outline>
</glyph>
<glyph name="uni043F" format="2">
  <advance width="592"/>
  <unicode hex="043F"/>
  <anchor x="294" y="21" name="bottom"/>
  <outline>
    <contour>
      <point x="80" y="0" type="line"/>
      <point x="80" y="500" type="line"/>
      <point x="512" y="500" type="line"/>
      <point x="512" y="0" type="line"/>
      <point x="422" y="0" type="line"/>
      <point x="422" y="435" type="line"/>
      <point x="170" y="435" type="line"/>
      <point x="170" y="0" type="line"/>
    </contour>
  </outline>
</glyph>
<glyph name="uni0443" format="2">
  <advance width="541"/>
  <unicode hex="0443"/>
  <outline>
    <contour>
      <point x="121" y="-198" type="line"/>
      <point x="209" y="-198" type="line"/>
      <point x="521" y="500" type="line"/>
      <point x="428" y="500" type="line"/>
    </contour>
    <contour>
      <point x="235.178" y="-7.21871" type="line"/>
      <point x="282.428" y="101.942" type="line"/>
      <point x="120" y="500" type="line"/>
      <point x="20" y="500" type="line"/>
    </contour>
  </outline>
  <guideline angle="65.9158" x="209" y="-198"/>
  <guideline angle="292.98" x="20" y="500"/>
</glyph>
<glyph name="uni0446" format="2">
  <advance width="622"/>
  <unicode hex="0446"/>
  <outline>
    <component base="dotlessi"/>
    <component base="dotlessi" xOffset="338"/>
    <contour>
      <point x="170" y="65" type="line"/>
      <point x="170" y="0" type="line"/>
      <point x="418" y="0" type="line"/>
      <point x="418" y="65" type="line"/>
    </contour>
    <contour>
      <point x="602" y="65" type="line"/>
      <point x="508" y="65" type="line"/>
      <point x="508" y="0" type="line"/>
      <point x="512" y="0" type="line"/>
      <point x="512" y="-160" type="line"/>
      <point x="602" y="-160" type="line"/>
    </contour>
  </outline>
</glyph>
<glyph name="djecyr" format="2">
  <advance width="593"/>
  <unicode hex="0452"/>
  <outline>
    <contour>
      <point x="80" y="0" type="line"/>
      <point x="170" y="0" type="line"/>
      <point x="170" y="722" type="line"/>
      <point x="80" y="722" type="line"/>
    </contour>
    <contour>
      <point x="150" y="322.561" type="line"/>
      <point x="170" y="323" type="line"/>
      <point x="170" y="396"/>
      <point x="227" y="453"/>
      <point x="302" y="453" type="curve" smooth="yes"/>
      <point x="387" y="453"/>
      <point x="425" y="409"/>
      <point x="425" y="311" type="curve" smooth="yes"/>
      <point x="425" y="0" type="line"/>
      <point x="515" y="0" type="line"/>
      <point x="515" y="329" type="line" smooth="yes"/>
      <point x="515" y="452"/>
      <point x="452" y="513"/>
      <point x="327" y="513" type="curve" smooth="yes"/>
      <point x="263" y="513"/>
      <point x="204.323" y="483.769"/>
      <point x="170" y="436" type="curve" smooth="yes"/>
      <point x="150" y="408.165" type="line"/>
    </contour>
    <contour>
      <point x="515" y="134" type="line"/>
      <point x="425" y="134" type="line"/>
      <point x="425" y="-61" type="line" smooth="yes"/>
      <point x="425" y="-103"/>
      <point x="397" y="-129"/>
      <point x="363" y="-129" type="curve" smooth="yes"/>
      <point x="334" y="-129"/>
      <point x="309" y="-114"/>
      <point x="288" y="-85" type="curve"/>
      <point x="231" y="-142" type="line"/>
      <point x="266" y="-180"/>
      <point x="312" y="-199"/>
      <point x="369" y="-199" type="curve" smooth="yes"/>
      <point x="456" y="-199"/>
      <point x="515" y="-144"/>
      <point x="515" y="-60" type="curve" smooth="yes"/>
    </contour>
    <contour>
      <point x="-31" y="620" type="line"/>
      <point x="-31" y="565" type="line"/>
      <point x="334" y="565" type="line"/>
      <point x="334" y="620" type="line"/>
    </contour>
  </outline>
</glyph>
<glyph name="ljecyr" format="2">
  <advance width="852"/>
  <unicode hex="0459"/>
  <outline>
    <component base="uni043B"/>
    <contour>
      <point x="496" y="0" type="line"/>
      <point x="636.505" y="0" type="line" smooth="yes"/>
      <point x="743.989" y="0"/>
      <point x="806.326" y="62"/>
      <point x="806.326" y="159.82" type="curve" smooth="yes"/>
      <point x="806.326" y="263"/>
      <point x="736.972" y="325"/>
      <point x="627.463" y="325" type="curve" smooth="yes"/>
      <point x="496" y="325" type="line"/>
      <point x="496" y="255" type="line"/>
      <point x="606.364" y="255" type="line" smooth="yes"/>
      <point x="675.687" y="255"/>
      <point x="711.855" y="223"/>
      <point x="711.855" y="165.291" type="curve" smooth="yes"/>
      <point x="711.855" y="106"/>
      <point x="673.678" y="70"/>
      <point x="612.393" y="70" type="curve" smooth="yes"/>
      <point x="495.918" y="70" type="line"/>
    </contour>
  </outline>
</glyph>
<glyph name="uni04D7" format="2">
  <advance width="576"/>
  <unicode hex="04D7"/>
  <anchor x="288" y="580" name="top"/>
  <anchor x="288" y="-89" name="bottom"/>
  <outline>
    <component base="uni0435"/>
    <contour>
      <point x="214" y="718" type="curve"/>
      <point x="146" y="718" type="line"/>
      <point x="151.03" y="629.47"/>
      <point x="202.5" y="580"/>
      <point x="287.517" y="580" type="curve" smooth="yes"/>
      <point x="372.913" y="580"/>
      <point x="424.995" y="629.912"/>
      <point x="430" y="718" type="curve"/>
      <point x="361" y="718" type="line"/>
      <point x="352.558" y="658.487"/>
      <point x="329.937" y="633.921"/>
      <point x="287.527" y="633.921" type="curve" smooth="yes"/>
      <point x="242.634" y="633.921"/>
      <point x="218.39" y="661.447"/>
    </contour>
  </outline>
</glyph>
<glyph name="quotedblleft" format="2">
  <advance width="435"/>
  <unicode hex="201C"/>
  <outline>
    <contour>
      <point x="40" y="472" type="line"/>
      <point x="160" y="472" type="line"/>
      <point x="220" y="722" type="line"/>
      <point x="150" y="722" type="line"/>
    </contour>
    <contour>
      <point x="220" y="472" type="line"/>
      <point x="340" y="472" type="line"/>
      <point x="400" y="722" type="line"/>
      <point x="330" y="722" type="line"/>
    </contour>
  </outline>
</glyph>
<glyph name="dagger" format="2">
  <advance width="558"/>
  <unicode hex="2020"/>
  <outline>
    <contour>
      <point x="513" y="426" type="line"/>
      <point x="513" y="500" type="line"/>
      <point x="321" y="500" type="line"/>
      <point x="321" y="722" type="line"/>
      <point x="238" y="722" type="line"/>
      <point x="238" y="500" type="line"/>
      <point x="46" y="500" type="line"/>
      <point x="46" y="426" type="line"/>
      <point x="238" y="426" type="line"/>
      <point x="238" y="-160" type="line"/>
      <point x="321" y="-160" type="line"/>
      <point x="321" y="426" type="line"/>
    </contour>
  </outline>
</glyph>
<glyph name="perthousand" format="2">
  <advance width="1378"/>
  <unicode hex="2030"/>
  <outline>
    <component base="percent"/>
    <contour>
      <point x="972" y="188.976" type="curve" smooth="yes"/>
      <point x="972" y="72.499"/>
      <point x="1042.96" y="-4"/>
      <point x="1151" y="-4" type="curve" smooth="yes"/>
      <point x="1259.15" y="-4"/>
      <point x="1330" y="72.3839"/>
      <point x="1330" y="188.976" type="curve" smooth="yes"/>
      <point x="1330" y="305.502"/>
      <point x="1260.19" y="380"/>
      <point x="1151" y="380" type="curve" smooth="yes"/>
      <point x="1042.42" y="380"/>
      <point x="972" y="304.845"/>
    </contour>
    <contour>
      <point x="1057" y="188" type="curve" smooth="yes"/>
      <point x="1057" y="265.402"/>
      <point x="1091.96" y="310"/>
      <point x="1151" y="310" type="curve" smooth="yes"/>
      <point x="1210.04" y="310"/>
      <point x="1245" y="265.402"/>
      <point x="1245" y="188" type="curve" smooth="yes"/>
      <point x="1245" y="110.598"/>
      <point x="1210.04" y="66"/>
      <point x="1151" y="66" type="curve" smooth="yes"/>
      <point x="1091.96" y="66"/>
      <point x="1057" y="110.598"/>
    </contour>
  </outline>
</glyph>
<glyph name="lessequal" format="2">
  <advance width="701"/>
  <unicode hex="2264"/>
  <outline>
    <contour>
      <point x="651" y="0" type="line"/>
      <point x="651" y="55" type="line"/>
      <point x="51" y="55" type="line"/>
      <point x="51" y="0" type="line"/>
    </contour>
    <contour>
      <point x="50.7452" y="307.764" type="line"/>
      <point x="650.745" y="77.7639" type="line"/>
      <point x="650.745" y="139.764" type="line"/>
      <point x="103.496" y="342.941" type="line"/>
      <point x="103.496" y="334.587" type="line"/>
      <point x="650.745" y="537.764" type="line"/>
      <point x="650.745" y="599.764" type="line"/>
      <point x="50.7452" y="369.764" type="line"/>
    </contour>
  </outline>
  <guideline angle="196.469" x="651" y="497"/>
  <guideline angle="17.5713" x="51" y="369"/>
  <guideline angle="343.531" x="103" y="341"/>
  <guideline angle="162.429" x="651" y="117"/>
  <guideline angle="90" x="651" y="0"/>
  <guideline angle="90" x="51" y="0"/>
  <guideline angle="0" x="0" y="335"/>
</glyph>
<glyph name="uniFB01" format="2">
  <advance width="588"/>
  <unicode hex="FB01"/>
  <outline>
    <contour>
      <point x="124" y="0" type="line"/>
      <point x="214" y="0" type="line"/>
      <point x="214" y="435" type="line"/>
      <point x="414" y="435" type="line"/>
      <point x="414" y="0" type="line"/>
      <point x="504" y="0" type="line"/>
      <point x="504" y="500" type="line"/>
      <point x="214" y="500" type="line"/>
      <point x="214" y="573" type="line" smooth="yes"/>
      <point x="214" y="632"/>
      <point x="233" y="660"/>
      <point x="287" y="660" type="curve" smooth="yes"/>
      <point x="309" y="660"/>
      <point x="326" y="659"/>
      <point x="345" y="648" type="curve"/>
      <point x="345" y="722" type="line"/>
      <point x="322" y="730"/>
      <point x="298" y="732"/>
      <point x="274" y="732" type="curve" smooth="yes"/>
      <point x="167" y="732"/>
      <point x="124" y="688"/>
      <point x="124" y="575" type="curve" smooth="yes"/>
      <point x="124" y="500" type="line"/>
      <point x="24" y="500" type="line"/>
      <point x="24" y="435" type="line"/>
      <point x="124" y="435" type="line"/>
    </contour>
    <contour>
      <point x="410" y="630" type="line"/>
      <point x="508" y="630" type="line"/>
      <point x="508" y="722" type="line"/>
      <point x="410" y="722" type="line"/>
    </contour>
  </outline>
</glyph>
<glyph name="uniFB03" format="2">
  <advance width="892"/>
  <unicode hex="FB03"/>
  <outline>
    <component base="uniFB01" xOffset="304"/>
    <contour>
      <point x="124" y="575" type="curve" smooth="yes"/>
      <point x="124" y="0" type="line"/>
      <point x="214" y="0" type="line"/>
      <point x="214" y="573" type="line" smooth="yes"/>
      <point x="214" y="632"/>
      <point x="233" y="660"/>
      <point x="290.507" y="660" type="curve" smooth="yes"/>
      <point x="308.574" y="660"/>
      <point x="329.037" y="657.236"/>
      <point x="345" y="648" type="curve"/>
      <point x="345" y="722" type="line"/>
      <point x="325" y="729"/>
      <point x="298.253" y="732"/>
      <point x="271.077" y="732" type="curve" smooth="yes"/>
      <point x="167" y="732"/>
      <point x="124" y="688"/>
    </contour>
    <contour>
      <point x="199" y="435" type="line"/>
      <point x="334" y="435" type="line"/>
      <point x="334" y="500" type="line"/>
      <point x="199" y="500" type="line"/>
    </contour>
    <contour>
      <point x="24" y="435" type="line"/>
      <point x="139" y="435" type="line"/>
      <point x="139" y="500" type="line"/>
      <point x="24" y="500" type="line"/>
    </contour>
    <contour>
      <point x="282" y="435" type="line"/>
      <point x="422" y="435" type="line"/>
      <point x="422" y="500" type="line"/>
      <point x="282" y="500" type="line"/>
    </contour>
  </outline>
</glyph>
<glyph name="uniFB06" format="2">
  <advance width="867"/>
  <unicode hex="FB06"/>
  <outline>
    <component base="s"/>
    <contour>
      <point x="637" y="133" type="line" smooth="yes"/>
      <point x="637" y="37"/>
      <point x="664" y="-12"/>
      <point x="750" y="-12" type="curve" smooth="yes"/>
      <point x="779" y="-12"/>
      <point x="809" y="-9"/>
      <point x="837" y="0" type="curve"/>
      <point x="837" y="64" type="line"/>
      <point x="817" y="58"/>
      <point x="796" y="55"/>
      <point x="776" y="55" type="curve" smooth="yes"/>
      <point x="738" y="55"/>
      <point x="727" y="85"/>
      <point x="727" y="130" type="curve" smooth="yes"/>
      <point x="727" y="578.751" type="line"/>
      <point x="637" y="541.751" type="line"/>
    </contour>
    <contour>
      <point x="712" y="435" type="line"/>
      <point x="837" y="435" type="line"/>
      <point x="837" y="500" type="line"/>
      <point x="712" y="500" type="line"/>
    </contour>
    <contour>
      <point x="547" y="435" type="line"/>
      <point x="652" y="435" type="line"/>
      <point x="652" y="500" type="line"/>
      <point x="547" y="500" type="line"/>
    </contour>
    <contour>
      <point x="431" y="366" type="curve"/>
      <point x="453" y="366" type="line"/>
      <point x="453" y="495.311"/>
      <point x="352" y="516.23"/>
      <point x="352" y="585.639" type="curve" smooth="yes"/>
      <point x="352" y="627.856"/>
      <point x="401.6" y="656"/>
      <point x="476" y="656" type="curve" smooth="yes"/>
      <point x="572.6" y="656"/>
      <point x="637" y="610.908"/>
      <point x="637" y="543.269" type="curve" smooth="yes"/>
      <point x="637" y="519" type="line"/>
      <point x="727" y="519" type="line"/>
      <point x="727" y="580" type="line" smooth="yes"/>
      <point x="727" y="671.2"/>
      <point x="649.359" y="732"/>
      <point x="532.899" y="732" type="curve" smooth="yes"/>
      <point x="401.559" y="732"/>
      <point x="314" y="677.2"/>
      <point x="314" y="595" type="curve" smooth="yes"/>
      <point x="314" y="495"/>
      <point x="431" y="480"/>
    </contour>
  </outline>
  <guideline angle="90" x="361.49" y="0"/>
  <guideline angle="90" x="453" y="0"/>
  <guideline angle="90" x="727" y="0"/>
  <guideline angle="90" x="637" y="0"/>
</glyph>
<glyph name="aed.dlig" format="2">
  <advance width="931"/>
  <outline>
    <contour>
      <point x="880.818" y="376.78" type="line"/>
      <point x="874.507" y="382.606" type="line" smooth="yes"/>
      <point x="864.308" y="392.318"/>
      <point x="852.172" y="397.173"/>
      <point x="839.06" y="397.173" type="curve" smooth="yes"/>
      <point x="771.084" y="397.173" type="line"/>
      <point x="772.053" y="385.52"/>
      <point x="772.544" y="373.867"/>
      <point x="772.544" y="361.243" type="curve" smooth="yes"/>
      <point x="772.544" y="348.619"/>
      <point x="772.053" y="336.966"/>
      <point x="771.084" y="324.827" type="curve"/>
      <point x="817.209" y="324.827" type="line" smooth="yes"/>
      <point x="852.172" y="324.827"/>
      <point x="880.818" y="291.81"/>
      <point x="880.818" y="250.539" type="curve" smooth="yes"/>
      <point x="880.818" y="232.089" type="line"/>
      <point x="874.507" y="238.401" type="line" smooth="yes"/>
      <point x="864.784" y="248.126"/>
      <point x="852.172" y="252.482"/>
      <point x="839.06" y="252.482" type="curve" smooth="yes"/>
      <point x="760.886" y="252.482" type="line"/>
      <point x="723.5" y="88.8512"/>
      <point x="592.891" y="0"/>
      <point x="387.022" y="0" type="curve" smooth="yes"/>
      <point x="122.887" y="0" type="line"/>
      <point x="144.969" y="13.424"/>
      <point x="158.817" y="59.8349"/>
      <point x="158.817" y="120.414" type="curve" smooth="yes"/>
      <point x="158.817" y="252.482" type="line"/>
      <point x="114.633" y="252.482" type="line" smooth="yes"/>
      <point x="79.1884" y="252.482"/>
      <point x="50.5414" y="285.984"/>
      <point x="50.5414" y="326.77" type="curve" smooth="yes"/>
      <point x="50.5414" y="345.22" type="line"/>
      <point x="57.339" y="339.393" type="line" smooth="yes"/>
      <point x="67.5083" y="330.676"/>
      <point x="79.1884" y="324.827"/>
      <point x="92.298" y="324.827" type="curve" smooth="yes"/>
      <point x="158.817" y="324.827" type="line"/>
      <point x="158.817" y="397.173" type="line"/>
      <point x="114.633" y="397.173" type="line" smooth="yes"/>
      <point x="79.1884" y="397.173"/>
      <point x="50.5414" y="430.675"/>
      <point x="50.5414" y="471.461" type="curve" smooth="yes"/>
      <point x="50.5414" y="489.911" type="line"/>
      <point x="57.339" y="483.599" type="line" smooth="yes"/>
      <point x="67.0498" y="474.374"/>
      <point x="79.1884" y="469.518"/>
      <point x="92.298" y="469.518" type="curve" smooth="yes"/>
      <point x="158.817" y="469.518" type="line"/>
      <point x="158.817" y="596.245" type="line" smooth="yes"/>
      <point x="158.817" y="648.853"/>
      <point x="142.649" y="705.443"/>
      <point x="122.887" y="722" type="curve"/>
      <point x="387.022" y="722" type="line" smooth="yes"/>
      <point x="587.064" y="722"/>
      <point x="721.072" y="634.117"/>
      <point x="760.401" y="469.518" type="curve"/>
      <point x="817.209" y="469.518" type="line" smooth="yes"/>
      <point x="852.172" y="469.518"/>
      <point x="880.818" y="436.502"/>
      <point x="880.818" y="395.231" type="curve" smooth="yes"/>
    </contour>
    <contour>
      <point x="377.311" y="686.07" type="curve" smooth="yes"/>
      <point x="267.093" y="686.07" type="line"/>
      <point x="267.093" y="469.518" type="line"/>
      <point x="637.561" y="469.518" type="line"/>
      <point x="612.313" y="620.036"/>
      <point x="526.372" y="686.07"/>
    </contour>
    <contour>
      <point x="646.301" y="361.243" type="curve" smooth="yes"/>
      <point x="646.301" y="373.867"/>
      <point x="645.815" y="385.52"/>
      <point x="645.329" y="397.173" type="curve"/>
      <point x="267.093" y="397.173" type="line"/>
      <point x="267.093" y="324.827" type="line"/>
      <point x="645.329" y="324.827" type="line"/>
      <point x="645.815" y="336.966"/>
      <point x="646.301" y="348.619"/>
    </contour>
    <contour>
      <point x="267.093" y="36.4163" type="line"/>
      <point x="378.282" y="36.4163" type="line" smooth="yes"/>
      <point x="536.131" y="36.4163"/>
      <point x="613.77" y="116.045"/>
      <point x="637.561" y="252.482" type="curve"/>
      <point x="267.093" y="252.482" type="line"/>
    </contour>
  </outline>
</glyph>
<glyph name="brevecyr.case" format="2">
  <advance width="421"/>
  <anchor x="211" y="750" name="top"/>
  <outline>
    <contour>
      <point x="210" y="830" type="curve" smooth="yes"/>
      <point x="163" y="830"/>
      <point x="142" y="857"/>
      <point x="142" y="887" type="curve"/>
      <point x="40" y="887" type="line"/>
      <point x="40" y="824.224"/>
      <point x="105.209" y="750"/>
      <point x="210" y="750" type="curve" smooth="yes"/>
      <point x="314.962" y="750"/>
      <point x="381" y="824.535"/>
      <point x="381" y="887" type="curve"/>
      <point x="279" y="887" type="line"/>
      <point x="279" y="856"/>
      <point x="258" y="830"/>
    </contour>
  </outline>
</glyph>
<glyph name="brevecyr" format="2">
  <advance width="365"/>
  <anchor x="182" y="580" name="top"/>
  <outline>
    <contour>
      <point x="108.483" y="718" type="curve"/>
      <point x="40.483" y="718" type="line"/>
      <point x="45.5131" y="629.47"/>
      <point x="96.983" y="580"/>
      <point x="182" y="580" type="curve" smooth="yes"/>
      <point x="267.396" y="580"/>
      <point x="319.478" y="629.912"/>
      <point x="324.483" y="718" type="curve"/>
      <point x="255.483" y="718" type="line"/>
      <point x="247.041" y="658.487"/>
      <point x="224.42" y="633.921"/>
      <point x="182.01" y="633.921" type="curve" smooth="yes"/>
      <point x="137.117" y="633.921"/>
      <point x="112.873" y="661.447"/>
    </contour>
  </outline>
</glyph>
<glyph name="commaaccent.alt" format="2">
  <advance width="228"/>
  <anchor x="114" y="580" name="_top"/>
  <outline>
    <contour>
      <point x="52.7093" y="580" type="line"/>
      <point x="140.709" y="580" type="line"/>
      <point x="175.709" y="725" type="line"/>
      <point x="112.709" y="725" type="line"/>
      <point x="52.6736" y="591.955" type="line"/>
    </contour>
  </outline>
  <guideline angle="0" x="0" y="580"/>
  <guideline angle="90" x="114" y="0"/>
</glyph>
<glyph name="uni0432.loclBGR" format="2">
  <advance width="628"/>
  <outline>
    <contour>
      <point x="80" y="289" type="line" smooth="yes"/>
      <point x="80" y="88"/>
      <point x="160" y="-12"/>
      <point x="319" y="-12" type="curve" smooth="yes"/>
      <point x="474" y="-12"/>
      <point x="568" y="82"/>
      <point x="568" y="227" type="curve" smooth="yes"/>
      <point x="568" y="338"/>
      <point x="512" y="397"/>
      <point x="422" y="422" type="curve"/>
      <point x="422" y="418" type="line"/>
      <point x="477.466" y="434.257"/>
      <point x="516" y="492.059"/>
      <point x="516" y="559" type="curve" smooth="yes"/>
      <point x="516" y="659"/>
      <point x="435" y="732"/>
      <point x="314" y="732" type="curve" smooth="yes"/>
      <point x="161" y="732"/>
      <point x="80" y="635"/>
      <point x="80" y="487" type="curve" smooth="yes"/>
    </contour>
    <contour>
      <point x="174" y="481" type="line" smooth="yes"/>
      <point x="174" y="600"/>
      <point x="211" y="667"/>
      <point x="305" y="667" type="curve" smooth="yes"/>
      <point x="375" y="667"/>
      <point x="422" y="623"/>
      <point x="422" y="562" type="curve" smooth="yes"/>
      <point x="422" y="482.003"/>
      <point x="341.712" y="433.768"/>
      <point x="164" y="407" type="curve"/>
      <point x="164" y="322" type="line"/>
      <point x="204" y="340"/>
      <point x="271" y="356"/>
      <point x="318" y="356" type="curve" smooth="yes"/>
      <point x="415" y="356"/>
      <point x="468" y="310"/>
      <point x="468" y="215" type="curve" smooth="yes"/>
      <point x="468" y="121"/>
      <point x="415" y="53"/>
      <point x="326" y="53" type="curve" smooth="yes"/>
      <point x="234" y="53"/>
      <point x="174" y="128"/>
      <point x="174" y="233" type="curve" smooth="yes"/>
    </contour>
  </outline>
</glyph>
<glyph name="uni0436.loclBGR" format="2">
  <advance width="788"/>
  <outline>
    <contour>
      <point x="20" y="0" type="line"/>
      <point x="243.297" y="291.527" type="line"/>
      <point x="244.112" y="273.158" type="line"/>
      <point x="36" y="500" type="line"/>
      <point x="149" y="500" type="line"/>
      <point x="349.289" y="280.736" type="line"/>
      <point x="139" y="0" type="line"/>
    </contour>
    <contour>
      <point x="439" y="0" type="line"/>
      <point x="349" y="0" type="line"/>
      <point x="349" y="722" type="line"/>
      <point x="439" y="722" type="line"/>
    </contour>
    <contour>
      <point x="768" y="0" type="line"/>
      <point x="649" y="0" type="line"/>
      <point x="438.711" y="280.736" type="line"/>
      <point x="639" y="500" type="line"/>
      <point x="752" y="500" type="line"/>
      <point x="543.888" y="273.158" type="line"/>
      <point x="544.703" y="291.527" type="line"/>
    </contour>
  </outline>
  <guideline angle="312.404" x="159" y="500"/>
  <guideline angle="132.534" x="246" y="282"/>
  <guideline angle="52.5494" x="30" y="0"/>
  <guideline angle="233.228" x="359" y="281"/>
  <guideline angle="90" x="349" y="0"/>
  <guideline angle="90" x="439" y="0"/>
  <guideline angle="90" x="394" y="0"/>
  <guideline angle="227.596" x="629" y="500"/>
  <guideline angle="47.4658" x="542" y="282"/>
  <guideline angle="127.451" x="758" y="0"/>
  <guideline angle="306.772" x="429" y="281"/>
</glyph>
<glyph name="uni0444.loclBGR" format="2">
  <advance width="732"/>
  <outline>
    <contour>
      <point x="411" y="722" type="line"/>
      <point x="321" y="722" type="line"/>
      <point x="321" y="-200" type="line"/>
      <point x="411" y="-200" type="line"/>
    </contour>
    <contour>
      <point x="388.4" y="448" type="line"/>
      <point x="521.131" y="433.494"/>
      <point x="577" y="374.692"/>
      <point x="577" y="249.501" type="curve" smooth="yes"/>
      <point x="577" y="124.595"/>
      <point x="520.087" y="64.392"/>
      <point x="388.4" y="50" type="curve"/>
      <point x="387.8" y="-15" type="line"/>
      <point x="574.775" y="-3.92863"/>
      <point x="672" y="86.605"/>
      <point x="672" y="249.641" type="curve" smooth="yes"/>
      <point x="672" y="414.001"/>
      <point x="574.264" y="505.945"/>
      <point x="387.8" y="517" type="curve"/>
    </contour>
    <contour>
      <point x="344.2" y="517" type="line"/>
      <point x="158.019" y="505.967"/>
      <point x="60" y="414.286"/>
      <point x="60" y="251.178" type="curve" smooth="yes"/>
      <point x="60" y="87.2703"/>
      <point x="157.384" y="-3.93858"/>
      <point x="344.2" y="-15" type="curve"/>
      <point x="343.6" y="50" type="line"/>
      <point x="211.914" y="64.3919"/>
      <point x="155" y="124.597"/>
      <point x="155" y="249.504" type="curve" smooth="yes"/>
      <point x="155" y="374.228"/>
      <point x="211.363" y="433.548"/>
      <point x="343.6" y="448" type="curve"/>
    </contour>
  </outline>
</glyph>
<glyph name="uni0448.loclBGR" format="2">
  <advance width="916"/>
  <outline>
    <contour>
      <point x="501" y="177" type="curve" smooth="yes"/>
      <point x="501" y="500" type="line"/>
      <point x="411" y="500" type="line"/>
      <point x="411" y="181" type="line" smooth="yes"/>
      <point x="411" y="124.431"/>
      <point x="352" y="52"/>
      <point x="283" y="52" type="curve" smooth="yes"/>
      <point x="206" y="52"/>
      <point x="170" y="100"/>
      <point x="170" y="178" type="curve" smooth="yes"/>
      <point x="170" y="500" type="line"/>
      <point x="80" y="500" type="line"/>
      <point x="80" y="178" type="line" smooth="yes"/>
      <point x="80" y="52"/>
      <point x="140" y="-12"/>
      <point x="265" y="-12" type="curve" smooth="yes"/>
      <point x="329.679" y="-12"/>
      <point x="387.074" y="23.3398"/>
      <point x="420.913" y="84" type="curve"/>
      <point x="448.707" y="15.1314"/>
      <point x="510.803" y="-13"/>
      <point x="588" y="-13" type="curve" smooth="yes"/>
      <point x="656" y="-13"/>
      <point x="725.704" y="35.9626"/>
      <point x="756" y="100" type="curve"/>
      <point x="756" y="180.814" type="line"/>
      <point x="746" y="181" type="line"/>
      <point x="746" y="124"/>
      <point x="686" y="51"/>
      <point x="612" y="51" type="curve" smooth="yes"/>
      <point x="545" y="51"/>
      <point x="501" y="110"/>
    </contour>
    <contour>
      <point x="746" y="135" type="line"/>
      <point x="746" y="0" type="line"/>
      <point x="836" y="0" type="line"/>
      <point x="836" y="135" type="line"/>
    </contour>
    <contour>
      <point x="836" y="135" type="line"/>
      <point x="836" y="500" type="line"/>
      <point x="746" y="500" type="line"/>
      <point x="746" y="134.707" type="line"/>
    </contour>
  </outline>
  <guideline angle="0" x="0" y="84"/>
  <guideline angle="0" x="0" y="130"/>
</glyph>
<glyph name="uni044A.loclBGR" format="2">
  <advance width="612"/>
  <outline>
    <component base="uni044C.loclBGR" xOffset="29"/>
    <contour>
      <point x="199" y="430" type="line"/>
      <point x="199" y="500" type="line"/>
      <point x="8" y="500" type="line"/>
      <point x="8" y="430" type="line"/>
    </contour>
  </outline>
</glyph>
